<?xml version="1.0" standalone="no"?>
<!DOCTYPE svg PUBLIC "-//W3C//DTD SVG 1.1//EN" "http://www.w3.org/Graphics/SVG/1.1/DTD/svg11.dtd" >
<svg xmlns="http://www.w3.org/2000/svg" xmlns:xlink="http://www.w3.org/1999/xlink" version="1.1">
<metadata>
Created by FontForge 20170731 at Wed Jun 13 20:18:19 2007
 By Aleksey,,,
(c) 1993, 1994, 2001, 2002 Adobe Systems Incorporated. All rights reserved.
</metadata>
<defs>
<font id="ITCAvantGardeStd-BkCnObl" horiz-adv-x="521" >
  <font-face 
    font-family="ITC Avant Garde Std Bk Cn"
    font-weight="300"
    font-style="italic"
    font-stretch="condensed"
    units-per-em="1000"
    panose-1="2 11 4 6 2 2 2 2 2 4"
    ascent="740"
    descent="-260"
    x-height="544"
    cap-height="740"
    bbox="-151 -289 1070.41 964"
    underline-thickness="50"
    underline-position="-200"
    slope="-10.5"
    unicode-range="U+0020-FB02"
  />
<missing-glyph horiz-adv-x="629" 
d="M129 0v700h500v-700h-500zM379 395l170 255h-340zM409 350l170 -255v510zM209 50h340l-170 255zM179 605v-510l170 255z" />
    <glyph glyph-name="f_i" unicode="fi" horiz-adv-x="429" 
d="M380 481h-140l-89 -481h-67l89 481h-62l12 63h62l7 41q9 46 29.5 80t42 50t49.5 25.5t42.5 11t30.5 1.5l-11 -59q-96 -6 -117 -115l-6 -35h207l-101 -544h-67zM477 641h-67l18 99h67z" />
    <glyph glyph-name="f_l" unicode="fl" horiz-adv-x="429" 
d="M380 481h-140l-89 -481h-67l89 481h-62l12 63h62l7 41q9 46 29.5 80t42 50t49.5 25.5t42.5 11t30.5 1.5l-11 -59q-96 -6 -117 -115l-6 -35h140l36 196h67l-137 -740h-67z" />
    <glyph glyph-name=".notdef" horiz-adv-x="629" 
d="M129 0v700h500v-700h-500zM379 395l170 255h-340zM409 350l170 -255v510zM209 50h340l-170 255zM179 605v-510l170 255z" />
    <glyph glyph-name=".null" horiz-adv-x="0" 
 />
    <glyph glyph-name="nonmarkingreturn" horiz-adv-x="333" 
 />
    <glyph glyph-name="space" unicode=" " horiz-adv-x="241" 
 />
    <glyph glyph-name="exclam" unicode="!" horiz-adv-x="248" 
d="M298 740l-103 -559h-74l103 559h74zM181 107l-20 -107h-74l20 107h74z" />
    <glyph glyph-name="quotedbl" unicode="&#x22;" horiz-adv-x="274" 
d="M184 464h-65l51 276h65zM326 464h-64l51 276h64z" />
    <glyph glyph-name="numbersign" unicode="#" 
d="M407 248l-67 -208h-54l67 208h-125l-67 -208h-54l68 208h-115l9 51h122l44 133h-116l9 50h123l64 197h53l-64 -197h125l64 197h53l-64 -197h113l-9 -50h-120l-43 -133h113l-9 -51h-120zM370 299l43 133h-125l-43 -133h125z" />
    <glyph glyph-name="dollar" unicode="$" 
d="M441 793l-14 -77q48 -7 77 -34.5t38 -62.5t4 -76h-72q3 54 -26.5 82t-66.5 28q-42 0 -80 -32t-47 -82q-5 -29 0 -49.5t28 -36.5t37 -22.5t52 -20.5q7 -3 10 -4q12 -5 20 -8.5t20.5 -10t21 -12.5t19.5 -15.5t18 -20t13.5 -24.5t9.5 -29.5t3 -35t-4 -41.5
q-14 -75 -71.5 -132t-133.5 -61l-17 -90h-62l17 90q-75 5 -112 61t-24 137h73q-7 -65 25.5 -100t83.5 -35t92.5 37.5t52.5 92.5q6 34 -1 58.5t-29 41t-42 26t-55 21.5l-9 3q-21 8 -36 16t-34 23t-27.5 32.5t-15 45.5t2.5 61q13 72 63.5 122t121.5 57l14 77h62z" />
    <glyph glyph-name="percent" unicode="%" horiz-adv-x="782" 
d="M137 580l1 1q14 77 70.5 124.5t129.5 47.5t111.5 -48t23.5 -125q-14 -77 -70 -124.5t-129 -47.5t-112 47.5t-25 124.5zM193 580v-1q-10 -52 15.5 -85.5t74.5 -33.5t86.5 33.5t47.5 86.5q10 54 -15 87.5t-74 33.5t-87 -33.5t-48 -87.5zM446 160v1q14 76 70.5 123.5
t129.5 47.5t111.5 -47.5t24.5 -124.5q-15 -77 -71 -125t-129 -48q-74 0 -112.5 48t-23.5 125zM502 160l-1 -1q-10 -53 15.5 -86.5t74.5 -33.5t87 33.5t48 87.5q10 53 -15.5 86.5t-74.5 33.5t-86.5 -33.5t-47.5 -86.5zM772 744l-562 -748h-63l563 748h62z" />
    <glyph glyph-name="ampersand" unicode="&#x26;" horiz-adv-x="637" 
d="M600 450h74l-165 -244l112 -167l-59 -46l-98 150q-3 -3 -16.5 -20t-19.5 -23t-20.5 -22t-23.5 -23.5t-24 -20.5t-28 -19.5t-29 -14t-33 -10.5t-35 -3q-88 0 -132 63t-28 148t72.5 142t129.5 88q-22 33 -31.5 49.5t-17 47.5t-2.5 64q13 71 68 117.5t122 46.5
q66 0 101.5 -47.5t23.5 -111.5q-21 -112 -167 -183l100 -151zM404 691h-1q-42 0 -71 -28t-36 -67q-5 -26 3 -52t16 -38.5t30 -43.5q59 30 89.5 61t37.5 72q7 38 -11.5 67t-56.5 29zM427 197l-114 176q-139 -63 -161 -169q-10 -60 17 -103t85 -43q78 0 167 131q4 5 6 8z" />
    <glyph glyph-name="quotesingle" unicode="'" horiz-adv-x="222" 
d="M229 464h-64l51 276h64z" />
    <glyph glyph-name="parenleft" unicode="(" horiz-adv-x="332" 
d="M443 749l-14 -73q-89 -64 -157 -175t-94 -251q-50 -268 93 -427l-13 -73q-92 75 -133.5 206.5t-11.5 293.5q30 161 122.5 297t207.5 202z" />
    <glyph glyph-name="parenright" unicode=")" horiz-adv-x="332" 
d="M-18 -250l13 73q89 63 157 174.5t94 250.5q50 271 -93 428l14 73q91 -75 133 -207t12 -294q-30 -160 -123 -295.5t-207 -202.5z" />
    <glyph glyph-name="asterisk" unicode="*" horiz-adv-x="361" 
d="M346 740l-37 -134l126 77l18 -50l-130 -56l110 -57l-38 -51l-97 78l-12 -134h-58l37 135l-124 -79l-20 52l130 57l-110 54l38 51l97 -77l12 134h58z" />
    <glyph glyph-name="plus" unicode="+" horiz-adv-x="537" 
d="M393 503l-41 -221h204l-11 -62h-204l-41 -220h-63l41 220h-204l11 62h204l41 221h63z" />
    <glyph glyph-name="comma" unicode="," horiz-adv-x="257" 
d="M197 106l-109 -189h-59l101 189h67z" />
    <glyph glyph-name="hyphen" unicode="-" horiz-adv-x="262" 
d="M83 313h212l-12 -67h-212z" />
    <glyph glyph-name="period" unicode="." horiz-adv-x="257" 
d="M183 106l-20 -106h-68l20 106h68z" />
    <glyph glyph-name="slash" unicode="/" horiz-adv-x="278" 
d="M-62 -68l457 812h70l-457 -812h-70z" />
    <glyph glyph-name="zero" unicode="0" 
d="M85 229l53 282q20 109 94 175.5t168 66.5t143.5 -66t29.5 -176l-53 -282q-20 -110 -94 -176t-168 -66t-143.5 66t-29.5 176zM208 508l-51 -276q-17 -90 20 -133.5t93 -43.5t109 43t70 134l51 276q17 91 -20 134t-93 43q-55 0 -108.5 -43.5t-70.5 -133.5z" />
    <glyph glyph-name="one" unicode="1" 
d="M234 0l125 673h-121l12 67h192l-137 -740h-71z" />
    <glyph glyph-name="two" unicode="2" 
d="M41 0l13 72q37 34 248 230q85 77 124 126.5t51 109.5q12 68 -15.5 104.5t-83.5 36.5q-58 0 -101.5 -41t-64.5 -129h-73q24 120 100 186q66 58 157 58q88 0 131 -60.5t26 -154.5q-10 -54 -42 -106.5t-101 -119.5q-86 -84 -260 -243h318l-13 -69h-414z" />
    <glyph glyph-name="three" unicode="3" 
d="M259 564h-75q20 91 81 140t143 49q81 0 121.5 -49.5t24.5 -132.5q-23 -119 -141 -153q72 -23 94.5 -79.5t9.5 -126.5q-18 -100 -87 -162.5t-170 -62.5q-59 0 -104 28t-64 78q-20 53 -9 127h75q-14 -80 20 -122t95 -42q65 0 109.5 43t58.5 119q14 71 -23.5 116.5
t-114.5 45.5h-30l13 66h28q69 0 110.5 32t52.5 88q10 53 -12 85.5t-74 32.5q-55 0 -88 -32.5t-44 -87.5z" />
    <glyph glyph-name="four" unicode="4" 
d="M331 0l27 145h-293l12 66l385 529h77l-98 -528h63l-12 -67h-63l-27 -145h-71zM146 212h224l79 423z" />
    <glyph glyph-name="five" unicode="5" 
d="M258 740h321l-12 -64h-256l-72 -228q52 56 136 56q86 0 128 -71.5t22 -180.5q-22 -120 -92.5 -192.5t-171.5 -72.5q-88 0 -136.5 59.5t-37.5 170.5h74q-7 -73 25 -117t87 -44q67 0 112.5 51.5t61.5 138.5q15 87 -13 138t-86 51q-75 0 -135 -78l-67 5z" />
    <glyph glyph-name="six" unicode="6" 
d="M448 740h81l-200 -228q-9 -10 -28 -29.5t-28 -29.5q44 30 95 30q83 0 128.5 -65.5t25.5 -173.5q-21 -114 -93.5 -185.5t-170.5 -71.5t-143 70q-49 70 -28 183q13 68 44.5 120.5t80.5 109.5zM163 229v-1q-15 -81 16.5 -128.5t91.5 -47.5q64 0 110.5 50.5t62.5 137.5
q15 80 -13 129t-93 49q-64 0 -111 -50t-64 -139z" />
    <glyph glyph-name="seven" unicode="7" 
d="M202 740h394l-12 -63l-396 -677h-78l396 673h-316z" />
    <glyph glyph-name="eight" unicode="8" 
d="M180 567v1q14 78 78 131.5t142 53.5q79 0 122 -53.5t28 -132.5q-9 -49 -41.5 -90.5t-77.5 -62.5q53 -20 77.5 -74.5t12.5 -124.5q-19 -100 -94 -164t-169 -64t-145 64t-34 164q14 71 59.5 124t104.5 76q-38 20 -55 62t-8 90zM255 559l-1 -1q-9 -50 17 -85t72 -35
q45 0 83 35t48 86q10 53 -16 89t-73 36q-44 0 -82 -36t-48 -89zM156 215v-1q-12 -65 21 -111.5t93 -46.5q61 0 111.5 46.5t62.5 112.5q12 65 -21.5 111t-93.5 46t-110.5 -46t-62.5 -111z" />
    <glyph glyph-name="nine" unicode="9" 
d="M210 0h-82l201 228q9 11 28.5 30.5t27.5 28.5q-46 -30 -94 -30q-83 0 -129.5 65.5t-26.5 173.5q21 114 94.5 185.5t171.5 71.5q97 0 142 -70q47 -70 27 -183q-21 -112 -124 -230zM494 511v1q15 81 -16 128.5t-91 47.5q-64 0 -111 -50.5t-63 -137.5q-15 -80 13 -129
t93 -49q64 0 111 50t64 139z" />
    <glyph glyph-name="colon" unicode=":" horiz-adv-x="257" 
d="M258 515l-19 -106h-68l19 106h68zM183 106l-20 -106h-68l20 106h68z" />
    <glyph glyph-name="semicolon" unicode=";" horiz-adv-x="257" 
d="M268 515l-19 -106h-69l19 106h69zM197 106l-109 -189h-59l101 189h67z" />
    <glyph glyph-name="less" unicode="&#x3c;" horiz-adv-x="537" 
d="M86 284l512 223l-13 -69l-424 -187l355 -185l-13 -69l-429 222z" />
    <glyph glyph-name="equal" unicode="=" horiz-adv-x="537" 
d="M104 384h471l-11 -62h-471zM67 181h471l-12 -63h-471z" />
    <glyph glyph-name="greater" unicode="&#x3e;" horiz-adv-x="537" 
d="M45 66l425 185l-356 187l13 69l430 -223l-12 -65l-513 -222z" />
    <glyph glyph-name="question" unicode="?" horiz-adv-x="477" 
d="M303 179h-73q1 4 4 20.5t4 21.5t4.5 20t6 21t7.5 19.5t9.5 21.5t11.5 20.5t15 21.5t18.5 20.5t22.5 22.5q11 11 50.5 46t56.5 58.5t23 54.5q11 57 -16.5 95.5t-82.5 38.5q-48 0 -89 -29t-59 -91q-1 -3 -6 -28h-75q1 3 2 9.5t2 11.5t2 9q26 95 93.5 142.5t144.5 47.5
q82 0 129.5 -59t30.5 -151q-7 -38 -31 -74.5t-44 -55.5t-58 -52q-31 -27 -50 -48t-29.5 -46t-13.5 -38t-10 -50zM290 107l-20 -107h-73l20 107h73z" />
    <glyph glyph-name="at" unicode="@" horiz-adv-x="757" 
d="M665 171h54q-61 -90 -150 -137t-176 -47q-152 0 -232.5 108.5t-50.5 270.5q31 165 153 276t273 111q125 0 206 -85t55 -227q-11 -60 -38 -110.5t-59 -81.5t-67.5 -53t-63.5 -31t-48 -9q-14 0 -26 4t-22 20t-7 42q-57 -64 -122 -64q-42 0 -72 37.5t-16 112.5
q19 102 91 183t150 81q71 0 90 -73l26 59h51l-118 -262q-16 -41 -17 -45q-9 -39 28 -39q50 0 110 58.5t79 158.5q23 130 -43 201.5t-177 71.5q-125 0 -228.5 -94.5t-130.5 -241.5t40.5 -237.5t194.5 -90.5q73 0 142.5 32t120.5 101zM316 314v-1q-9 -49 7 -72t45 -23
q85 0 139 110q41 79 45 100q8 43 -12.5 65t-49.5 22q-50 0 -104.5 -60.5t-69.5 -140.5z" />
    <glyph glyph-name="A" unicode="A" horiz-adv-x="495" 
d="M177 219l-102 -219h-77l348 740h74l77 -740h-76l-22 219h-222zM391 287l-25 356l-157 -356h182z" />
    <glyph glyph-name="B" unicode="B" horiz-adv-x="498" 
d="M67 0l137 740h154q96 0 131 -37q56 -45 37 -149q-22 -122 -133 -158q37 -11 61.5 -33.5t33.5 -48.5t12 -55.5t-4 -54.5q-22 -116 -113 -168q-55 -36 -136 -36h-180zM267 673l-47 -253h82q50 0 79 19q53 34 67 109q13 74 -26 105q-23 20 -89 20h-66zM207 353l-53 -286h92
q61 0 93 19q63 30 81 121q8 41 -2 74.5t-33 50.5q-28 21 -95 21h-83z" />
    <glyph glyph-name="C" unicode="C" horiz-adv-x="554" 
d="M496 241h74q-20 -104 -94 -179t-184 -75q-120 0 -170.5 99t-15.5 284q33 179 118 281t210 102q111 0 156.5 -78.5t24.5 -191.5h-74q7 36 4 72t-14 64.5t-38 46t-68 17.5q-94 0 -155 -84t-89 -236q-28 -151 8.5 -228.5t119.5 -77.5q78 0 123 52.5t64 131.5z" />
    <glyph glyph-name="D" unicode="D" horiz-adv-x="582" 
d="M67 0l137 740h170q170 0 222 -107q47 -95 17 -263q-19 -103 -56.5 -177t-88.5 -115t-107 -59.5t-122 -18.5h-172zM266 671l-111 -602h91q126 0 194.5 76t96.5 225q28 154 -11 226q-39 75 -171 75h-89z" />
    <glyph glyph-name="E" unicode="E" horiz-adv-x="475" 
d="M70 0l137 740h347l-13 -69h-272l-47 -258h272l-13 -69h-272l-51 -275h272l-13 -69h-347z" />
    <glyph glyph-name="F" unicode="F" horiz-adv-x="423" 
d="M66 0l137 740h319l-13 -69h-244l-47 -258h244l-13 -68h-244l-64 -345h-75z" />
    <glyph glyph-name="G" unicode="G" horiz-adv-x="612" 
d="M651 495h-75q9 64 -12 114q-32 76 -121 76q-93 0 -162.5 -81.5t-97.5 -233.5q-29 -158 11.5 -236.5t131.5 -78.5q101 0 161 87q46 67 63 168h-208l13 68h285q-14 -77 -22 -109q-11 -51 -34.5 -98t-59.5 -89.5t-90.5 -68.5t-119.5 -26q-137 0 -188.5 105t-19.5 278
t127 278t223 105q111 0 160 -73.5t35 -184.5z" />
    <glyph glyph-name="H" unicode="H" horiz-adv-x="548" 
d="M142 0h-75l137 740h75l-60 -327h263l60 327h76l-137 -740h-76l64 344h-263z" />
    <glyph glyph-name="I" unicode="I" horiz-adv-x="210" 
d="M67 0l137 740h75l-137 -740h-75z" />
    <glyph glyph-name="J" unicode="J" horiz-adv-x="427" 
d="M497 740l-99 -536q-14 -70 -37 -112q-29 -47 -72 -73q-49 -32 -107 -32q-70 0 -111 41.5t-37 117.5q1 9 3 29h73q1 -5 1 -15q-1 -105 86 -105q60 3 96 62q19 31 32 97l97 526h75z" />
    <glyph glyph-name="K" unicode="K" horiz-adv-x="464" 
d="M67 0l137 740h75l-66 -358l298 358h85l-311 -366l193 -374h-89l-181 357l-66 -357h-75z" />
    <glyph glyph-name="L" unicode="L" horiz-adv-x="397" 
d="M70 0l137 740h75l-124 -671h236l-13 -69h-311z" />
    <glyph glyph-name="M" unicode="M" horiz-adv-x="707" 
d="M137 0h-68l137 740h116l57 -631l279 631h117l-137 -740h-68l124 671l-299 -671h-70l-64 671z" />
    <glyph glyph-name="N" unicode="N" horiz-adv-x="596" 
d="M296 740l186 -617l114 617h68l-137 -740h-84l-189 632l-117 -632h-68l137 740h90z" />
    <glyph glyph-name="O" unicode="O" horiz-adv-x="613" 
d="M106 370v1q31 169 121 275.5t219 106.5t179 -106.5t19 -276.5q-14 -74 -41.5 -140.5t-68.5 -122t-100.5 -88t-129.5 -32.5q-86 0 -139 51t-65 136t6 196zM183 370l-1 -1q-28 -150 8 -232t126 -82t157 82t95 233q27 151 -9 233t-126 82t-156.5 -82t-93.5 -233z" />
    <glyph glyph-name="P" unicode="P" horiz-adv-x="489" 
d="M207 740h140q122 0 176 -51q27 -27 38.5 -72.5t1.5 -97.5q-10 -53 -38 -98.5t-66 -72.5q-72 -51 -194 -51h-65l-55 -297h-75zM269 671l-56 -305h65q53 0 83 7t59 28q23 16 41.5 48t25.5 69q7 38 0 70t-24 49q-20 20 -48 27t-81 7h-65z" />
    <glyph glyph-name="Q" unicode="Q" horiz-adv-x="617" 
d="M598 57l-13 -69q-7 -1 -22 -1q-68 0 -103 51q-70 -51 -156 -51t-139 51t-65 136t6 196q31 170 121 276.5t219 106.5t179 -106.5t19 -276.5q-35 -182 -128 -279q24 -41 82 -34zM433 685h-1q-89 0 -155.5 -82.5t-93.5 -232.5q-14 -76 -8 -137q66 39 128 39q55 0 99 -36
q40 -37 70 -89q26 27 54 86.5t42 136.5q28 150 -8.5 232.5t-126.5 82.5zM316 55h1q62 0 112 40q-27 48 -56 76q-39 36 -94 36q-53 0 -102 -35q32 -117 139 -117z" />
    <glyph glyph-name="R" unicode="R" horiz-adv-x="502" 
d="M67 0l137 740h141q135 0 175 -44q65 -62 44 -179q-16 -81 -58 -134q-61 -73 -144 -85l93 -298h-84l-101 344q17 0 26 1q74 1 123 40q50 41 67 125q16 95 -31 136q-29 25 -125 25h-64l-124 -671h-75z" />
    <glyph glyph-name="S" unicode="S" horiz-adv-x="494" 
d="M74 204h73q-9 -79 23.5 -115t81.5 -36q61 0 108 38.5t59 105.5q7 37 -0.5 63.5t-32 44t-41 25.5t-51.5 20q-7 3 -11 4q-12 5 -19 7.5t-20 8t-21 10.5t-19.5 12.5t-18.5 16t-16 19t-13 22.5t-7.5 26.5t-3.5 32.5t4 37q17 96 81.5 152t152.5 56q173 0 163 -188h-72
q7 124 -101 124q-56 0 -95 -36.5t-50 -94.5q-6 -35 0.5 -59.5t31.5 -42t45 -26t64 -23.5q12 -4 19.5 -7.5t20.5 -10t22 -12.5t21 -16t19.5 -20.5t14.5 -25.5t10 -31.5t3 -38t-4 -45.5q-18 -96 -89.5 -155t-163.5 -59q-91 0 -138 55.5t-30 161.5z" />
    <glyph glyph-name="T" unicode="T" horiz-adv-x="412" 
d="M169 0l124 671h-150l13 69h375l-13 -69h-150l-124 -671h-75z" />
    <glyph glyph-name="U" unicode="U" horiz-adv-x="553" 
d="M201 740h75l-100 -540q-14 -75 16 -111q28 -33 94 -33q67 0 107 33q44 36 58 111l100 540h75l-101 -545q-19 -101 -80 -152q-65 -56 -170 -56q-107 0 -152 56q-41 53 -23 152z" />
    <glyph glyph-name="V" unicode="V" horiz-adv-x="504" 
d="M216 0l-77 740h76l57 -636l294 636h73l-351 -740h-72z" />
    <glyph glyph-name="W" unicode="W" horiz-adv-x="783" 
d="M181 0l-41 740h74l29 -627l249 627h76l17 -627l259 627h73l-313 -740h-78l-17 637l-250 -637h-78z" />
    <glyph glyph-name="X" unicode="X" horiz-adv-x="462" 
d="M4 0l260 394l-100 346h78l74 -281l178 281h79l-229 -346l113 -394h-79l-87 326l-208 -326h-79z" />
    <glyph glyph-name="Y" unicode="Y" horiz-adv-x="449" 
d="M187 0l50 269l-103 471h78l76 -399l223 399h78l-277 -471l-50 -269h-75z" />
    <glyph glyph-name="Z" unicode="Z" horiz-adv-x="486" 
d="M570 677l-436 -608h336l-13 -69h-423l11 60l436 611h-323l13 69h411z" />
    <glyph glyph-name="bracketleft" unicode="[" horiz-adv-x="332" 
d="M254 -179l-11 -57h-203l181 976h203l-10 -57h-140l-160 -862h140z" />
    <glyph glyph-name="backslash" unicode="\" horiz-adv-x="278" 
d="M246 -68l-155 812h66l155 -812h-66z" />
    <glyph glyph-name="bracketright" unicode="]" horiz-adv-x="332" 
d="M1 -236l11 57h140l160 862h-140l10 57h203l-181 -976h-203z" />
    <glyph glyph-name="asciicircum" unicode="^" horiz-adv-x="537" 
d="M137 381l235 359h66l104 -359h-67l-82 294l-190 -294h-66z" />
    <glyph glyph-name="underscore" unicode="_" horiz-adv-x="500" 
d="M477 -125h-500l9 50h500z" />
    <glyph glyph-name="grave" unicode="`" horiz-adv-x="418" 
d="M240 769l197 -126l-35 -47l-200 119z" />
    <glyph glyph-name="a" unicode="a" horiz-adv-x="490" 
d="M525 544l-101 -544h-62q17 92 20 104q-28 -56 -71 -86.5t-94 -30.5q-81 0 -117 78.5t-13 205.5q24 128 87.5 207t147.5 79q104 0 122 -118q5 34 19 105h62zM154 272v-1q-18 -96 4.5 -157t82.5 -61q59 0 106 60q40 51 60 159q21 108 -1 159q-24 60 -84 60t-105 -61.5
t-63 -157.5z" />
    <glyph glyph-name="b" unicode="b" horiz-adv-x="490" 
d="M66 0l137 740h67l-36 -196q-13 -69 -21 -104q25 54 67 85.5t93 31.5q85 0 119.5 -78.5t11.5 -205.5q-24 -129 -89 -207.5t-147 -78.5q-101 0 -122 118q-9 -57 -18 -105h-62zM436 272l1 1q9 60 6 108.5t-27 79t-65 30.5q-65 0 -107.5 -63t-60.5 -156q-17 -92 2.5 -155.5
t84.5 -63.5q61 0 105 62.5t61 156.5z" />
    <glyph glyph-name="c" unicode="c" horiz-adv-x="445" 
d="M389 185h69q-25 -88 -81.5 -143t-134.5 -55q-53 0 -90 23.5t-53.5 63t-21.5 91t7 106.5q24 132 95.5 209t164.5 77q82 0 118.5 -56t24.5 -145h-68q11 138 -88 138q-67 0 -110 -58q-46 -62 -66 -164q-19 -107 5 -164.5t89 -57.5q49 0 85 36t55 99z" />
    <glyph glyph-name="d" unicode="d" horiz-adv-x="490" 
d="M561 740l-137 -740h-62q11 62 21 108q-25 -56 -69.5 -88.5t-96.5 -32.5q-81 0 -117 78.5t-13 205.5q24 128 87.5 207t147.5 79q100 0 119 -115q6 45 17 102l36 196h67zM155 273l-1 -1q-17 -96 5 -157t82 -61q59 0 106 60q40 51 61 159q19 108 -2 159q-25 59 -84 59
q-60 0 -104.5 -60.5t-62.5 -157.5z" />
    <glyph glyph-name="e" unicode="e" horiz-adv-x="478" 
d="M488 252h-332q-17 -89 8.5 -145.5t91.5 -56.5q48 0 85.5 29.5t56.5 78.5h66q-29 -80 -91 -128q-60 -43 -128 -43q-54 0 -91.5 24.5t-52.5 65t-19.5 91t7.5 103.5q24 129 94 207.5t165 78.5t132 -77q37 -75 8 -228zM167 311h264q15 86 -10 137.5t-86 51.5
q-58 0 -104.5 -53.5t-63.5 -135.5z" />
    <glyph glyph-name="f" unicode="f" horiz-adv-x="250" 
d="M80 0l89 481h-61l12 63h61l7 41q9 46 29.5 80t42 50t49.5 25.5t42.5 11t30.5 1.5l-11 -59q-96 -6 -117 -115l-6 -35h95l-12 -63h-95l-89 -481h-67z" />
    <glyph glyph-name="g" unicode="g" horiz-adv-x="490" 
d="M525 544l-99 -534q-21 -110 -76 -163q-63 -60 -157 -60q-27 0 -54 8.5t-52 27t-38.5 53.5t-7.5 82h68q-3 -50 17 -76q28 -33 81 -33q123 0 152 156q16 85 19 97q-25 -54 -67 -84.5t-94 -30.5q-86 0 -120 78.5t-10 205.5q24 129 86.5 207.5t148.5 78.5q104 0 125 -118
q5 34 19 105h59zM154 272v-1q-18 -96 4.5 -157t82.5 -61q59 0 106 60q40 51 60 159q21 108 -1 159q-24 60 -84 60t-105 -61.5t-63 -157.5z" />
    <glyph glyph-name="h" unicode="h" horiz-adv-x="497" 
d="M66 0l137 740h67l-35 -192q-16 -79 -19 -90q51 99 164 99q76 0 108 -49q32 -45 12 -150l-66 -358h-67l63 338q15 81 -3 118q-18 35 -73 35q-62 0 -104 -44t-60 -138l-57 -309h-67z" />
    <glyph glyph-name="i" unicode="i" horiz-adv-x="215" 
d="M193 642l18 98h67l-18 -98h-67zM74 0l101 544h67l-101 -544h-67z" />
    <glyph glyph-name="j" unicode="j" horiz-adv-x="212" 
d="M190 641l18 99h67l-18 -99h-67zM239 544l-102 -551q-34 -178 -151 -196q-16 -2 -24 -2l12 65q2 0 5 0.5t4 1.5q39 8 57.5 41.5t30.5 97.5l101 543h67z" />
    <glyph glyph-name="k" unicode="k" horiz-adv-x="394" 
d="M63 0l137 740h67l-79 -429l218 233h76l-233 -242l145 -302h-75l-137 281l-52 -281h-67z" />
    <glyph glyph-name="l" unicode="l" horiz-adv-x="215" 
d="M74 0l137 740h67l-137 -740h-67z" />
    <glyph glyph-name="m" unicode="m" horiz-adv-x="755" 
d="M68 0l101 544h64q-8 -45 -19 -89q53 102 157 102q58 0 88 -37q20 -26 18 -65q23 43 58 69q51 33 106 33q86 0 114 -70q18 -41 -2 -149l-63 -338h-67l62 333q13 72 7 101q-4 27 -23.5 42t-48.5 15q-56 0 -96 -44q-38 -43 -51 -119l-61 -328h-67l61 330q13 71 8 104
q-3 27 -22.5 42t-48.5 15q-55 0 -96 -42q-37 -42 -52 -123l-60 -326h-67z" />
    <glyph glyph-name="n" unicode="n" horiz-adv-x="497" 
d="M66 0l101 544h60q-13 -69 -19 -93q58 106 173 106q73 0 106 -45.5t16 -140.5l-69 -371h-67l65 350q26 141 -78 141q-61 0 -103.5 -43t-57.5 -126l-60 -322h-67z" />
    <glyph glyph-name="o" unicode="o" horiz-adv-x="493" 
d="M87 272l1 1q22 124 90 204t172 80q103 0 141 -80t15 -205t-90.5 -205t-170.5 -80q-104 0 -142.5 80t-15.5 205zM157 272v-1q-40 -221 100 -221q68 0 113.5 56.5t65.5 165.5q41 222 -98 222q-140 0 -181 -222z" />
    <glyph glyph-name="p" unicode="p" horiz-adv-x="490" 
d="M29 -201l138 745h62q-3 -13 -9.5 -49t-10.5 -55q61 117 164 117q82 0 118 -78.5t12 -207.5q-24 -127 -87 -205.5t-148 -78.5q-48 0 -79.5 30t-39.5 82q-2 -27 -16 -99l-37 -201h-67zM436 272l1 1q17 96 -4.5 157t-82.5 61q-59 0 -104 -60q-42 -50 -63 -159
q-19 -106 4 -159q23 -60 82 -60q61 0 105 61t62 158z" />
    <glyph glyph-name="q" unicode="q" horiz-adv-x="490" 
d="M525 544l-138 -745h-67l37 201q15 79 21 102q-28 -55 -70 -85t-91 -30q-84 0 -119 79t-11 205q24 129 89 207.5t146 78.5q50 0 82 -29t39 -88q8 53 18 104h64zM154 272v-1q-18 -96 4.5 -157t82.5 -61q59 0 106 60q40 51 60 159q21 108 -1 159q-24 60 -84 60t-105 -61.5
t-63 -157.5z" />
    <glyph glyph-name="r" unicode="r" horiz-adv-x="277" 
d="M66 0l101 544h62q-13 -74 -23 -114q53 122 168 127l-14 -78q-10 7 -24 7q-41 0 -86 -50t-63 -144l-54 -292h-67z" />
    <glyph glyph-name="s" unicode="s" horiz-adv-x="403" 
d="M426 403h-66q16 94 -71 94q-35 0 -61 -22.5t-33 -58.5q-8 -42 17.5 -63.5t80.5 -39.5q123 -39 100 -164q-13 -72 -67.5 -117t-124.5 -45q-76 0 -113 44.5t-25 128.5h66q-9 -54 13.5 -82.5t69.5 -28.5q43 0 72.5 26.5t37.5 68.5q8 46 -16.5 71t-81.5 44q-57 20 -84 54
t-15 101q12 65 61.5 104t116.5 39q70 0 102 -39.5t21 -114.5z" />
    <glyph glyph-name="t" unicode="t" horiz-adv-x="250" 
d="M92 0l89 481h-76l12 63h76l32 172h67l-32 -172h75l-12 -63h-75l-89 -481h-67z" />
    <glyph glyph-name="u" unicode="u" horiz-adv-x="497" 
d="M532 544l-101 -544h-62q14 72 20 95q-58 -108 -172 -108q-73 0 -106 45.5t-16 140.5l69 371h67l-65 -350q-26 -141 78 -141q61 0 103.5 43t57.5 126l60 322h67z" />
    <glyph glyph-name="v" unicode="v" horiz-adv-x="391" 
d="M491 544l-259 -544h-67l-63 544h68l45 -454l209 454h67z" />
    <glyph glyph-name="w" unicode="w" horiz-adv-x="622" 
d="M149 0l-45 544h69l28 -447l172 399h61l24 -399l193 447h68l-247 -544h-66l-20 397l-170 -397h-67z" />
    <glyph glyph-name="x" unicode="x" horiz-adv-x="383" 
d="M5 0l197 277l-90 267h76l64 -214l145 214h75l-191 -267l97 -277h-77l-69 223l-151 -223h-76z" />
    <glyph glyph-name="y" unicode="y" horiz-adv-x="399" 
d="M56 -201l109 214l-58 531h70l41 -433l208 433h69l-372 -745h-67z" />
    <glyph glyph-name="z" unicode="z" horiz-adv-x="397" 
d="M20 0l11 62l339 419h-244l12 63h324l-12 -64l-337 -417h269l-12 -63h-350z" />
    <glyph glyph-name="braceleft" unicode="{" horiz-adv-x="332" 
d="M413 740l-10 -55h-44q-36 0 -51.5 -19.5t-26.5 -75.5l-34 -188q-11 -54 -45 -97.5t-68 -60.5q34 -12 50 -50.5t5 -101.5l-35 -188q-11 -60 -2.5 -78t44.5 -18h44l-10 -55h-67q-54 0 -71.5 32t-5.5 97l36 194q22 115 -45 141l10 55q33 5 60 44.5t38 99.5l37 197
q12 64 41 95.5t83 31.5h67z" />
    <glyph glyph-name="bar" unicode="|" horiz-adv-x="391" 
d="M235 869h61v-1158h-61v1158z" />
    <glyph glyph-name="braceright" unicode="}" horiz-adv-x="332" 
d="M183 685l10 55h67q54 0 71.5 -32.5t5.5 -96.5l-36 -194q-21 -114 46 -141l-10 -54q-33 -5 -60.5 -45t-38.5 -100l-36 -196q-12 -64 -41.5 -96t-83.5 -32h-67l10 55h44q36 0 52.5 19.5t26.5 75.5l35 189q10 53 43.5 96.5t67.5 60.5q-34 12 -49.5 51t-3.5 102l34 187
q10 60 1.5 78t-44.5 18h-44z" />
    <glyph glyph-name="asciitilde" unicode="~" horiz-adv-x="537" 
d="M508 311l15 -50q-54 -75 -115 -75q-30 0 -96 33q-64 34 -90 34q-53 2 -99 -61l-16 50q57 78 127 75q33 0 99 -34q66 -33 87 -33q39 0 88 61z" />
    <glyph glyph-name="uni00A0" unicode="&#xa0;" horiz-adv-x="241" 
 />
    <glyph glyph-name="exclamdown" unicode="&#xa1;" horiz-adv-x="248" 
d="M168 437l20 107h74l-20 -107h-74zM50 -198l104 562h74l-104 -562h-74z" />
    <glyph glyph-name="cent" unicode="&#xa2;" 
d="M296 -13h-61l17 95q-50 3 -82 31.5t-42.5 72t-10.5 87.5t8 89q50 265 232 287l18 95h61l-18 -95q145 -13 120 -208h-71q14 144 -91 144q-134 0 -175 -219q-40 -219 96 -219q55 0 93.5 40.5t51.5 100.5h71q-17 -86 -72.5 -144.5t-127.5 -61.5z" />
    <glyph glyph-name="sterling" unicode="&#xa3;" 
d="M437 414l-13 -66h-166q37 -61 42 -90q5 -26 0 -55q-13 -66 -66 -131h60q69 0 112 35q40 33 54 101q4 27 4 46h74q-3 -42 -5 -55q-17 -96 -83 -149q-62 -50 -154 -50h-253l13 72h102q54 63 66 129q6 33 -5 64.5t-39 82.5h-97l13 66h65q-21 48 -7 124q17 91 87 153t162 62
q80 0 127 -53.5t42 -145.5h-75q-1 56 -33 90.5t-81 34.5q-56 -1 -100 -41.5t-57 -101.5q-13 -74 13 -122h198z" />
    <glyph glyph-name="currency" unicode="&#xa4;" 
d="M487 98l-65 80q-62 -42 -137 -42t-120 42l-96 -80l-36 44l97 82q-37 50 -23 129q15 78 69 128l-67 82l53 44l66 -81q60 44 138 44q79 0 120 -44l96 81l38 -44l-96 -82q34 -49 19 -128q-14 -80 -68 -129l65 -82zM173 353v-1q-11 -62 26 -106.5t98 -44.5q62 0 116 45
t65 107q12 63 -24.5 107.5t-99.5 44.5q-61 0 -115 -44.5t-66 -107.5z" />
    <glyph glyph-name="yen" unicode="&#xa5;" 
d="M556 444l-12 -66h-164l-19 -28l-11 -58h178l-12 -66h-178l-42 -226h-71l42 226h-178l12 66h178l11 58l-9 28h-164l12 66h133l-93 296h79l90 -324l208 324h79l-202 -296h133z" />
    <glyph glyph-name="brokenbar" unicode="&#xa6;" horiz-adv-x="391" 
d="M235 782h60v-405h-60v405zM235 202h60v-404h-60v404z" />
    <glyph glyph-name="section" unicode="&#xa7;" horiz-adv-x="500" 
d="M508 604h-51q9 97 -68 97q-41 0 -67.5 -21.5t-33.5 -57.5q-12 -66 43 -110l98 -88q19 -17 31 -31.5t21 -43t3 -60.5q-8 -41 -36.5 -78t-70.5 -57q40 -49 26 -125q-11 -59 -57.5 -100.5t-111.5 -41.5q-70 0 -101 45.5t-22 116.5h52q-5 -45 12.5 -77.5t66.5 -32.5
q38 0 65 25t35 65q16 67 -57 129l-96 86q-64 50 -49 134q8 43 38.5 78t74.5 52q-36 49 -25 112q10 57 56 95t115 38q127 0 109 -149zM422 282v1q7 34 -7 57.5t-48 52.5l-93 82q-27 -11 -48 -37t-26 -54q-11 -63 46 -107l105 -90q60 33 71 95z" />
    <glyph glyph-name="dieresis" unicode="&#xa8;" horiz-adv-x="260" 
d="M223 731l-21 -114h-65l21 114h65zM372 731l-21 -114h-65l21 114h65z" />
    <glyph glyph-name="copyright" unicode="&#xa9;" horiz-adv-x="800" 
d="M540 752h1q160 0 249.5 -111.5t60.5 -270.5q-30 -161 -162 -271.5t-291 -110.5q-160 0 -250.5 110t-60.5 272q29 158 159.5 270t293.5 112zM532 707h-1q-142 0 -256 -98.5t-140 -238.5q-26 -141 52.5 -239t218.5 -98q139 0 254 97.5t142 239.5q25 139 -52 238t-218 99z
M678 442h-51q-1 52 -35 76.5t-82 24.5q-67 0 -119 -46.5t-67 -127.5q-16 -87 21 -130.5t99 -43.5q18 0 38 4.5t46 16t48 38.5t33 67h53q-23 -83 -87 -130t-140 -47q-88 0 -138.5 60t-31.5 164q18 99 89 162.5t166 63.5q73 0 117 -41.5t41 -110.5z" />
    <glyph glyph-name="ordfeminine" unicode="&#xaa;" horiz-adv-x="300" 
d="M409 746l-60 -327h-49q8 48 13 67q-39 -74 -108 -74q-53 0 -77 47t-10 123q14 77 55 124t96 47q68 0 80 -75q1 11 3 22t4.5 24t3.5 22h49zM170 582v-1q-9 -50 3 -85.5t50 -35.5q29 0 51.5 21.5t34.5 55.5q8 29 11 48q5 25 5 45q-2 74 -60 74q-35 0 -60.5 -35t-34.5 -87z
" />
    <glyph glyph-name="guillemotleft" unicode="&#xab;" horiz-adv-x="385" 
d="M90 279l143 190h65l-143 -190l73 -188h-65zM227 279l143 190h65l-143 -190l73 -188h-65z" />
    <glyph glyph-name="logicalnot" unicode="&#xac;" horiz-adv-x="537" 
d="M104 384h471l-49 -266h-63l38 204h-408z" />
    <glyph glyph-name="uni00AD" unicode="&#xad;" horiz-adv-x="262" 
d="M83 313h212l-12 -67h-212z" />
    <glyph glyph-name="registered" unicode="&#xae;" horiz-adv-x="800" 
d="M540 752h1q160 0 249.5 -111.5t60.5 -270.5q-30 -161 -162 -271.5t-291 -110.5q-160 0 -250.5 110t-60.5 272q29 158 159.5 270t293.5 112zM532 707h-1q-142 0 -256 -98.5t-140 -238.5q-26 -141 52.5 -239t218.5 -98q139 0 254 97.5t142 239.5q25 139 -52 238t-218 99z
M345 588h183q23 0 44 -4t46 -15t37 -36.5t5 -63.5q-14 -75 -100 -107q35 -11 46.5 -34.5t6.5 -65.5q-11 -92 -6 -110h-57q-5 13 7 100q3 18 1.5 34t-9 27.5t-29.5 18.5t-59 7h-105l-35 -187h-57zM510 545h-116l-30 -164h107l9 1q10 0 14 0.5t14.5 2t16.5 3t16 5t16.5 8
t14.5 10.5t13.5 14t10 18.5t6.5 22.5q4 22 -1.5 38t-15.5 24t-26.5 12t-25.5 4.5t-23 0.5z" />
    <glyph glyph-name="macron" unicode="&#xaf;" horiz-adv-x="418" 
d="M512 698l-9 -51h-348l9 51h348z" />
    <glyph glyph-name="degree" unicode="&#xb0;" horiz-adv-x="400" 
d="M452 580v-1q-11 -60 -60.5 -102t-110.5 -42t-95.5 42t-23.5 103q12 61 61.5 103t110.5 42t95.5 -42t22.5 -103zM203 580v-1q-8 -44 16.5 -74.5t68.5 -30.5t79.5 31t43.5 75t-16 75t-68 31t-80 -31t-44 -75z" />
    <glyph glyph-name="plusminus" unicode="&#xb1;" horiz-adv-x="537" 
d="M300 339l31 167h63l-31 -167h204l-12 -63h-204l-31 -167h-63l31 167h-204l12 63h204zM33 0l12 63h471l-12 -63h-471z" />
    <glyph glyph-name="twosuperior" unicode="&#xb2;" horiz-adv-x="344" 
d="M366 352l-9 -52h-270l9 49q86 73 194 170q56 51 64 95q6 35 -7.5 59t-50.5 24q-33 0 -59 -25.5t-35 -72.5h-57q10 54 37 88q47 61 126 61q59 0 88 -37t17 -99q-10 -57 -78 -119l-162 -141h193z" />
    <glyph glyph-name="threesuperior" unicode="&#xb3;" horiz-adv-x="344" 
d="M108 435h56q-8 -47 12.5 -70.5t53.5 -23.5q39 0 65 24.5t34 63.5q7 38 -11.5 66t-63.5 28h-29l8 45h27q22 0 38.5 7t25 18.5t13 21t6.5 19.5q5 27 -7 45.5t-39 19.5q-28 1 -48 -17.5t-27 -49.5h-56q12 57 52.5 86.5t89.5 29.5t76.5 -30t17.5 -79q-12 -63 -72 -90
q34 -11 49.5 -43.5t7.5 -76.5q-11 -59 -57 -98t-107 -39q-83 0 -108 60q-17 34 -7 83z" />
    <glyph glyph-name="acute" unicode="&#xb4;" horiz-adv-x="418" 
d="M220 643l245 126l17 -54l-246 -119z" />
    <glyph glyph-name="mu" unicode="&#xb5;" horiz-adv-x="500" 
d="M32 -181l135 725h67l-63 -338q-15 -85 4 -120q18 -33 70 -33q63 0 106 45q42 43 60 141l57 305h67l-101 -544h-62q3 18 10.5 51.5t9.5 46.5q-26 -53 -71.5 -82t-98.5 -29q-32 0 -55.5 13.5t-27.5 40.5q-2 -9 -6 -34.5t-6 -36.5l-28 -151h-67z" />
    <glyph glyph-name="paragraph" unicode="&#xb6;" horiz-adv-x="544" 
d="M224 -103l85 460q-102 0 -154 47.5t-35 142.5q18 96 89.5 144.5t174.5 48.5h281l-9 -51h-55l-147 -792h-65l147 791h-100l-147 -791h-65z" />
    <glyph glyph-name="periodcentered" unicode="&#xb7;" horiz-adv-x="257" 
d="M224 310l-20 -111h-77l20 111h77z" />
    <glyph glyph-name="cedilla" unicode="&#xb8;" horiz-adv-x="216" 
d="M128 0l-43 -60l9 2q8 2 13 2q35 0 53 -21t12 -52q-7 -35 -37 -59.5t-68 -24.5q-69 0 -81 49l27 18q8 -29 55 -29q19 0 35 12t20 32q2 18 -8 30t-28 12q-25 0 -47 -19l-20 10l70 98h38z" />
    <glyph glyph-name="onesuperior" unicode="&#xb9;" horiz-adv-x="281" 
d="M315 740l-81 -440h-56l72 391h-74l9 49h130z" />
    <glyph glyph-name="ordmasculine" unicode="&#xba;" horiz-adv-x="300" 
d="M121 582v1q14 75 57.5 122.5t111.5 47.5t93.5 -47.5t11.5 -123.5q-14 -75 -57.5 -123t-111.5 -48t-93.5 48t-11.5 123zM174 582v-1q-24 -124 61 -124q83 0 107 125q12 65 -3 95.5t-59 29.5q-43 1 -68.5 -29.5t-37.5 -95.5z" />
    <glyph glyph-name="guillemotright" unicode="&#xbb;" horiz-adv-x="385" 
d="M326 468l73 -190l-143 -187h-65l144 187l-74 190h65zM189 468l73 -190l-143 -187h-65l143 187l-73 190h65z" />
    <glyph glyph-name="onequarter" unicode="&#xbc;" horiz-adv-x="718" 
d="M708 440l-57 -307h43l-9 -49h-43l-16 -84h-54l16 84h-194l8 45l248 311h58zM639 362l-178 -229h136zM329 740l-81 -440h-57l72 391h-73l9 49h130zM676 744l-483 -748h-60l482 748h61z" />
    <glyph glyph-name="onehalf" unicode="&#xbd;" horiz-adv-x="749" 
d="M329 740l-81 -440h-57l72 391h-73l9 49h130zM666 744l-483 -748h-60l482 748h61zM706 53l-10 -53h-269l9 49q134 117 194 171q56 49 64 95q7 34 -6.5 58t-50.5 24q-34 0 -60 -26t-35 -72h-57q10 51 38 89q47 60 125 60q59 0 88 -37t18 -99q-11 -58 -78 -118
q-22 -20 -49 -43.5t-61 -52.5t-52 -45h192z" />
    <glyph glyph-name="threequarters" unicode="&#xbe;" horiz-adv-x="781" 
d="M772 440l-57 -307h42l-9 -49h-42l-16 -84h-55l16 84h-194l8 45l248 311h59zM702 362l-178 -229h136zM114 435h56q-8 -47 12.5 -70.5t53.5 -23.5q39 0 65 24.5t34 63.5q7 38 -11.5 66t-63.5 28h-29l8 45h27q22 0 38.5 7t25 18.5t13 21t6.5 19.5q5 27 -7 45.5t-39 19.5
q-28 1 -48 -17.5t-27 -49.5h-56q12 57 52.5 86.5t89.5 29.5t76.5 -30t17.5 -79q-12 -63 -72 -90q34 -11 49.5 -43.5t7.5 -76.5q-11 -59 -57 -98t-107 -39q-83 0 -108 60q-17 34 -7 83zM745 744l-483 -748h-60l482 748h61z" />
    <glyph glyph-name="questiondown" unicode="&#xbf;" horiz-adv-x="477" 
d="M288 437l20 107h73l-20 -107h-73zM275 365h73q0 -2 -4 -22.5t-5 -24t-5.5 -21.5t-7.5 -24t-9 -22t-12 -24.5t-15 -22t-20 -25t-24 -23.5q-14 -14 -41 -38t-41.5 -38t-29 -36.5t-19.5 -46.5q-10 -57 17.5 -95.5t81.5 -38.5q49 0 90 29t58 91q2 7 7 28h75q-2 -10 -8 -30
q-25 -95 -92.5 -142t-144.5 -47q-82 0 -129.5 59t-30.5 150q7 38 30.5 74t44.5 56t59 52q31 27 49.5 47.5t29 46.5t13.5 38.5t10 49.5z" />
    <glyph glyph-name="Agrave" unicode="&#xc0;" horiz-adv-x="495" 
d="M177 219l-102 -219h-77l348 740h74l77 -740h-76l-22 219h-222zM391 287l-25 356l-157 -356h182zM308 947l197 -126l-34 -47l-200 119z" />
    <glyph glyph-name="Aacute" unicode="&#xc1;" horiz-adv-x="495" 
d="M177 219l-102 -219h-77l348 740h74l77 -740h-76l-22 219h-222zM391 287l-25 356l-157 -356h182zM295 821l245 126l17 -54l-246 -119z" />
    <glyph glyph-name="Acircumflex" unicode="&#xc2;" horiz-adv-x="495" 
d="M177 219l-102 -219h-77l348 740h74l77 -740h-76l-22 219h-222zM391 287l-25 356l-157 -356h182zM450 918l117 -123h-70l-86 85l-119 -85h-70l163 123h65z" />
    <glyph glyph-name="Atilde" unicode="&#xc3;" horiz-adv-x="495" 
d="M177 219l-102 -219h-77l348 740h74l77 -740h-76l-22 219h-222zM391 287l-25 356l-157 -356h182zM563 889l21 -41q-44 -40 -100 -40q-50 0 -85 13q-43 15 -75 15q-44 0 -79 -31l-23 41q16 17 45 30t55 13q48 0 89 -13q38 -15 76 -15q39 0 76 28z" />
    <glyph glyph-name="Adieresis" unicode="&#xc4;" horiz-adv-x="495" 
d="M177 219l-102 -219h-77l348 740h74l77 -740h-76l-22 219h-222zM391 287l-25 356l-157 -356h182zM374 909l-21 -115h-65l21 115h65zM522 909l-21 -115h-64l21 115h64z" />
    <glyph glyph-name="Aring" unicode="&#xc5;" horiz-adv-x="495" 
d="M177 219l-102 -219h-77l348 740h74l77 -740h-76l-22 219h-222zM391 287l-25 356l-157 -356h182zM426 964h1q41 0 64.5 -29t15.5 -70t-42 -70.5t-76 -29.5q-41 0 -65 29.5t-16 70.5t42.5 70t75.5 29zM418 924h-1q-24 0 -44 -17t-24 -42q-5 -24 9 -41t39 -17t44.5 17
t24.5 41q5 25 -9 42t-39 17z" />
    <glyph glyph-name="AE" unicode="&#xc6;" horiz-adv-x="820" 
d="M-8 0l504 740h398l-13 -69h-285l-47 -258h285l-13 -69h-285l-51 -275h285l-13 -69h-360l39 213h-219l-142 -213h-83zM261 282h188l73 393z" />
    <glyph glyph-name="Ccedilla" unicode="&#xc7;" horiz-adv-x="550" 
d="M309 -12l-30 -48q10 4 22 4q31 0 47 -20.5t10 -52.5q-7 -36 -35.5 -60t-67.5 -24q-66 0 -77 50l28 18q7 -30 48 -30q20 0 36 12t20 32q2 19 -7 30.5t-25 11.5q-24 0 -39 -18l-26 9l57 86q-109 6 -155 105.5t-13 276.5q33 178 117.5 280.5t207.5 102.5q111 0 157.5 -79
t26.5 -191h-75q6 50 2 94.5t-34.5 75t-84.5 30.5q-93 0 -153.5 -84t-88.5 -236t8 -229t120 -77q77 0 122.5 53.5t63.5 130.5h75q-18 -99 -87 -172.5t-170 -80.5z" />
    <glyph glyph-name="Egrave" unicode="&#xc8;" horiz-adv-x="475" 
d="M70 0l137 740h347l-13 -69h-272l-47 -258h272l-13 -69h-272l-51 -275h272l-13 -69h-347zM301 950l198 -126l-34 -47l-201 119z" />
    <glyph glyph-name="Eacute" unicode="&#xc9;" horiz-adv-x="475" 
d="M70 0l137 740h347l-13 -69h-272l-47 -258h272l-13 -69h-272l-51 -275h272l-13 -69h-347zM282 824l244 126l18 -54l-245 -119z" />
    <glyph glyph-name="Ecircumflex" unicode="&#xca;" horiz-adv-x="475" 
d="M70 0l137 740h347l-13 -69h-272l-47 -258h272l-13 -69h-272l-51 -275h272l-13 -69h-347zM441 921l117 -123h-71l-86 85l-118 -85h-71l164 123h65z" />
    <glyph glyph-name="Edieresis" unicode="&#xcb;" horiz-adv-x="475" 
d="M70 0l137 740h347l-13 -69h-272l-47 -258h272l-13 -69h-272l-51 -275h272l-13 -69h-347zM364 912l-21 -114h-64l21 114h64zM513 912l-21 -114h-65l21 114h65z" />
    <glyph glyph-name="Igrave" unicode="&#xcc;" horiz-adv-x="210" 
d="M67 0l137 740h75l-137 -740h-75zM166 947l196 -126l-34 -47l-200 119z" />
    <glyph glyph-name="Iacute" unicode="&#xcd;" horiz-adv-x="210" 
d="M67 0l137 740h75l-137 -740h-75zM152 821l245 126l17 -54l-246 -119z" />
    <glyph glyph-name="Icircumflex" unicode="&#xce;" horiz-adv-x="210" 
d="M67 0l137 740h75l-137 -740h-75zM307 918l118 -123h-71l-86 85l-119 -85h-70l163 123h65z" />
    <glyph glyph-name="Idieresis" unicode="&#xcf;" horiz-adv-x="210" 
d="M67 0l137 740h75l-137 -740h-75zM232 912l-21 -114h-65l21 114h65zM381 912l-21 -114h-65l21 114h65z" />
    <glyph glyph-name="Eth" unicode="&#xd0;" horiz-adv-x="582" 
d="M143 408l61 332h170q170 0 222 -107q47 -95 17 -263q-19 -103 -56.5 -177t-88.5 -115t-107 -59.5t-122 -18.5h-172l63 340h-81l13 68h81zM266 671l-48 -263h165l-13 -68h-165l-50 -271h91q123 0 192 71t99 230q28 154 -11 226q-39 75 -171 75h-89z" />
    <glyph glyph-name="Ntilde" unicode="&#xd1;" horiz-adv-x="596" 
d="M296 740l186 -617l114 617h68l-137 -740h-84l-189 632l-117 -632h-68l137 740h90zM612 887l23 -41q-46 -40 -102 -40q-49 0 -84 13q-38 15 -74 15q-43 0 -80 -31l-24 41q16 17 46 30.5t56 13.5q51 0 88 -14q43 -15 76 -15q39 0 75 28z" />
    <glyph glyph-name="Ograve" unicode="&#xd2;" horiz-adv-x="613" 
d="M106 370v1q31 169 121 275.5t219 106.5t179 -106.5t19 -276.5q-14 -74 -41.5 -140.5t-68.5 -122t-100.5 -88t-129.5 -32.5q-86 0 -139 51t-65 136t6 196zM183 370l-1 -1q-28 -150 8 -232t126 -82t157 82t95 233q27 151 -9 233t-126 82t-156.5 -82t-93.5 -233zM371 947
l196 -126l-34 -47l-200 119z" />
    <glyph glyph-name="Oacute" unicode="&#xd3;" horiz-adv-x="613" 
d="M106 370v1q31 169 121 275.5t219 106.5t179 -106.5t19 -276.5q-14 -74 -41.5 -140.5t-68.5 -122t-100.5 -88t-129.5 -32.5q-86 0 -139 51t-65 136t6 196zM183 370l-1 -1q-28 -150 8 -232t126 -82t157 82t95 233q27 151 -9 233t-126 82t-156.5 -82t-93.5 -233zM351 821
l244 126l18 -54l-246 -119z" />
    <glyph glyph-name="Ocircumflex" unicode="&#xd4;" horiz-adv-x="613" 
d="M106 370v1q31 169 121 275.5t219 106.5t179 -106.5t19 -276.5q-14 -74 -41.5 -140.5t-68.5 -122t-100.5 -88t-129.5 -32.5q-86 0 -139 51t-65 136t6 196zM183 370l-1 -1q-28 -150 8 -232t126 -82t157 82t95 233q27 151 -9 233t-126 82t-156.5 -82t-93.5 -233zM509 918
l117 -123h-70l-86 85l-119 -85h-71l164 123h65z" />
    <glyph glyph-name="Otilde" unicode="&#xd5;" horiz-adv-x="613" 
d="M106 370v1q31 169 121 275.5t219 106.5t179 -106.5t19 -276.5q-14 -74 -41.5 -140.5t-68.5 -122t-100.5 -88t-129.5 -32.5q-86 0 -139 51t-65 136t6 196zM183 370l-1 -1q-28 -150 8 -232t126 -82t157 82t95 233q27 151 -9 233t-126 82t-156.5 -82t-93.5 -233zM621 892
l23 -41q-46 -40 -101 -40q-49 0 -85 13q-38 15 -75 15q-43 0 -78 -31l-24 41q16 17 45.5 30.5t55.5 13.5q50 0 89 -14q41 -15 75 -15q39 0 75 28z" />
    <glyph glyph-name="Odieresis" unicode="&#xd6;" horiz-adv-x="613" 
d="M106 370v1q31 169 121 275.5t219 106.5t179 -106.5t19 -276.5q-14 -74 -41.5 -140.5t-68.5 -122t-100.5 -88t-129.5 -32.5q-86 0 -139 51t-65 136t6 196zM183 370l-1 -1q-28 -150 8 -232t126 -82t157 82t95 233q27 151 -9 233t-126 82t-156.5 -82t-93.5 -233zM434 912
l-21 -114h-65l21 114h65zM582 912l-21 -114h-64l21 114h64z" />
    <glyph glyph-name="multiply" unicode="&#xd7;" horiz-adv-x="537" 
d="M78 0l-36 46l228 206l-153 203l54 47l152 -206l229 206l36 -47l-228 -203l153 -206l-54 -46l-153 207z" />
    <glyph glyph-name="Oslash" unicode="&#xd8;" horiz-adv-x="613" 
d="M618 658l102 107h64l-147 -153q33 -98 7 -242q-14 -74 -41.5 -140.5t-68.5 -122t-100.5 -88t-129.5 -32.5q-119 0 -170 94l-102 -106h-64l144 152q-33 102 -6 243q31 170 121 276.5t219 106.5q120 0 172 -95zM179 197l380 399q-32 89 -126 89q-90 0 -156.5 -82
t-93.5 -233q-20 -101 -4 -173zM569 541l-379 -399q34 -87 126 -87q90 0 157 82t95 233q18 104 1 171z" />
    <glyph glyph-name="Ugrave" unicode="&#xd9;" horiz-adv-x="553" 
d="M201 740h75l-100 -540q-14 -75 16 -111q28 -33 94 -33q67 0 107 33q44 36 58 111l100 540h75l-101 -545q-19 -101 -80 -152q-65 -56 -170 -56q-107 0 -152 56q-41 53 -23 152zM318 947l197 -126l-34 -47l-200 119z" />
    <glyph glyph-name="Uacute" unicode="&#xda;" horiz-adv-x="553" 
d="M201 740h75l-100 -540q-14 -75 16 -111q28 -33 94 -33q67 0 107 33q44 36 58 111l100 540h75l-101 -545q-19 -101 -80 -152q-65 -56 -170 -56q-107 0 -152 56q-41 53 -23 152zM324 821l245 126l18 -54l-247 -119z" />
    <glyph glyph-name="Ucircumflex" unicode="&#xdb;" horiz-adv-x="553" 
d="M201 740h75l-100 -540q-14 -75 16 -111q28 -33 94 -33q67 0 107 33q44 36 58 111l100 540h75l-101 -545q-19 -101 -80 -152q-65 -56 -170 -56q-107 0 -152 56q-41 53 -23 152zM480 924l118 -123h-71l-86 86l-119 -86h-70l164 123h64z" />
    <glyph glyph-name="Udieresis" unicode="&#xdc;" horiz-adv-x="553" 
d="M201 740h75l-100 -540q-14 -75 16 -111q28 -33 94 -33q67 0 107 33q44 36 58 111l100 540h75l-101 -545q-19 -101 -80 -152q-65 -56 -170 -56q-107 0 -152 56q-41 53 -23 152zM404 912l-21 -114h-65l21 114h65zM553 912l-21 -114h-65l21 114h65z" />
    <glyph glyph-name="Yacute" unicode="&#xdd;" horiz-adv-x="449" 
d="M187 0l50 269l-103 471h78l76 -399l223 399h78l-277 -471l-50 -269h-75zM287 821l245 126l17 -54l-246 -119z" />
    <glyph glyph-name="Thorn" unicode="&#xde;" horiz-adv-x="499" 
d="M70 0l137 740h75l-27 -146h65q122 0 176 -50q27 -27 38.5 -72.5t1.5 -97.5t-38 -97t-65 -72q-73 -50 -194 -50h-65l-29 -155h-75zM242 525l-55 -301h65q52 0 82.5 7t59.5 27q51 36 66 116q7 36 0 68t-24 49q-20 20 -48 27t-81 7h-65z" />
    <glyph glyph-name="germandbls" unicode="&#xdf;" horiz-adv-x="505" 
d="M66 0l93 501q13 73 30 114t44 70q59 68 161 68q77 0 112.5 -52t20.5 -134q-26 -140 -133 -184q65 -13 91 -65.5t13 -124.5q-18 -95 -75.5 -150.5t-144.5 -55.5q-58 0 -94 33.5t-34 108.5l-22 -129h-62zM225 496l-55 -297h34q-12 -76 13 -112.5t69 -36.5q54 0 92 38
t49 101q14 76 -20 118q-17 17 -36 25.5t-56 8.5q-15 1 -34 1l12 62q12 0 22 1q55 1 91 42t50 112q11 59 -12 95t-71 36q-58 0 -97 -46q-30 -37 -51 -148z" />
    <glyph glyph-name="agrave" unicode="&#xe0;" horiz-adv-x="490" 
d="M525 544l-101 -544h-62q17 92 20 104q-28 -56 -71 -86.5t-94 -30.5q-81 0 -117 78.5t-13 205.5q24 128 87.5 207t147.5 79q104 0 122 -118q5 34 19 105h62zM154 272v-1q-18 -96 4.5 -157t82.5 -61q59 0 106 60q40 51 60 159q21 108 -1 159q-24 60 -84 60t-105 -61.5
t-63 -157.5zM270 769l196 -126l-34 -47l-200 119z" />
    <glyph glyph-name="aacute" unicode="&#xe1;" horiz-adv-x="490" 
d="M525 544l-101 -544h-62q17 92 20 104q-28 -56 -71 -86.5t-94 -30.5q-81 0 -117 78.5t-13 205.5q24 128 87.5 207t147.5 79q104 0 122 -118q5 34 19 105h62zM154 272v-1q-18 -96 4.5 -157t82.5 -61q59 0 106 60q40 51 60 159q21 108 -1 159q-24 60 -84 60t-105 -61.5
t-63 -157.5zM269 643l244 126l18 -54l-246 -119z" />
    <glyph glyph-name="acircumflex" unicode="&#xe2;" horiz-adv-x="490" 
d="M525 544l-101 -544h-62q17 92 20 104q-28 -56 -71 -86.5t-94 -30.5q-81 0 -117 78.5t-13 205.5q24 128 87.5 207t147.5 79q104 0 122 -118q5 34 19 105h62zM154 272v-1q-18 -96 4.5 -157t82.5 -61q59 0 106 60q40 51 60 159q21 108 -1 159q-24 60 -84 60t-105 -61.5
t-63 -157.5zM404 740l118 -123h-71l-86 85l-119 -85h-70l163 123h65z" />
    <glyph glyph-name="atilde" unicode="&#xe3;" horiz-adv-x="490" 
d="M525 544l-101 -544h-62q17 92 20 104q-28 -56 -71 -86.5t-94 -30.5q-81 0 -117 78.5t-13 205.5q24 128 87.5 207t147.5 79q104 0 122 -118q5 34 19 105h62zM154 272v-1q-18 -96 4.5 -157t82.5 -61q59 0 106 60q40 51 60 159q21 108 -1 159q-24 60 -84 60t-105 -61.5
t-63 -157.5zM527 714l23 -40q-45 -41 -102 -41q-49 0 -84 13q-40 15 -74 15q-45 0 -80 -31l-24 41q16 17 45.5 30.5t55.5 13.5q50 0 89 -14q41 -15 75 -15q39 0 76 28z" />
    <glyph glyph-name="adieresis" unicode="&#xe4;" horiz-adv-x="490" 
d="M525 544l-101 -544h-62q17 92 20 104q-28 -56 -71 -86.5t-94 -30.5q-81 0 -117 78.5t-13 205.5q24 128 87.5 207t147.5 79q104 0 122 -118q5 34 19 105h62zM154 272v-1q-18 -96 4.5 -157t82.5 -61q59 0 106 60q40 51 60 159q21 108 -1 159q-24 60 -84 60t-105 -61.5
t-63 -157.5zM324 731l-21 -114h-64l21 114h64zM473 731l-21 -114h-65l21 114h65z" />
    <glyph glyph-name="aring" unicode="&#xe5;" horiz-adv-x="490" 
d="M525 544l-101 -544h-62q17 92 20 104q-28 -56 -71 -86.5t-94 -30.5q-81 0 -117 78.5t-13 205.5q24 128 87.5 207t147.5 79q104 0 122 -118q5 34 19 105h62zM154 272v-1q-18 -96 4.5 -157t82.5 -61q59 0 106 60q40 51 60 159q21 108 -1 159q-24 60 -84 60t-105 -61.5
t-63 -157.5zM378 791h1q41 0 64 -29.5t16 -70.5q-8 -41 -42.5 -70t-75.5 -29q-42 0 -66 29t-16 70q7 41 42.5 70.5t76.5 29.5zM370 751h-1q-24 0 -44.5 -17t-24.5 -42q-4 -24 10 -41t39 -17q24 0 43.5 17t24.5 41q5 25 -8.5 42t-38.5 17z" />
    <glyph glyph-name="ae" unicode="&#xe6;" horiz-adv-x="799" 
d="M814 256h-340q-16 -91 8.5 -148.5t93.5 -57.5q50 0 89.5 29.5t58.5 78.5h66q-28 -78 -85.5 -124.5t-130.5 -46.5q-109 0 -132 117l-18 -104h-62l20 104q-58 -117 -165 -117q-85 0 -122 78t-14 206q24 128 88.5 207t152.5 79q104 0 122 -118l19 105h62l-21 -105
q68 118 174 118q86 0 125 -71q41 -74 11 -230zM148 272v-1q-18 -95 6.5 -156.5t85.5 -61.5q49 0 86 36.5t55 81.5t28 101q21 109 -3 160q-23 59 -85 59q-61 0 -108 -62t-65 -157zM484 308h272q16 93 -10.5 142.5t-91.5 49.5t-111 -59q-43 -52 -59 -133z" />
    <glyph glyph-name="ccedilla" unicode="&#xe7;" horiz-adv-x="430" 
d="M252 -11l-31 -47q12 4 23 4q29 0 46 -21.5t11 -53.5q-6 -34 -36 -57t-66 -23q-66 0 -76 49l28 19q7 -30 46 -30q19 0 35 11.5t20 30.5q3 17 -6 28.5t-24 11.5q-24 0 -39 -18l-27 9l56 87q-93 6 -127 87t-13 195q24 132 95.5 209t164.5 77q82 0 118.5 -56t24.5 -145h-68
q11 138 -88 138q-67 0 -110 -58q-46 -62 -66 -164q-19 -107 5 -164.5t89 -57.5q49 0 85 36t56 99h68q-24 -81 -74 -134.5t-120 -61.5z" />
    <glyph glyph-name="egrave" unicode="&#xe8;" horiz-adv-x="478" 
d="M488 252h-332q-17 -89 8.5 -145.5t91.5 -56.5q48 0 85.5 29.5t56.5 78.5h66q-29 -80 -91 -128q-60 -43 -128 -43q-54 0 -91.5 24.5t-52.5 65t-19.5 91t7.5 103.5q24 129 94 207.5t165 78.5t132 -77q37 -75 8 -228zM167 311h264q15 86 -10 137.5t-86 51.5
q-58 0 -104.5 -53.5t-63.5 -135.5zM270 769l197 -126l-34 -47l-200 119z" />
    <glyph glyph-name="eacute" unicode="&#xe9;" horiz-adv-x="478" 
d="M488 252h-332q-17 -89 8.5 -145.5t91.5 -56.5q48 0 85.5 29.5t56.5 78.5h66q-29 -80 -91 -128q-60 -43 -128 -43q-54 0 -91.5 24.5t-52.5 65t-19.5 91t7.5 103.5q24 129 94 207.5t165 78.5t132 -77q37 -75 8 -228zM167 311h264q15 86 -10 137.5t-86 51.5
q-58 0 -104.5 -53.5t-63.5 -135.5zM250 643l245 126l18 -54l-247 -119z" />
    <glyph glyph-name="ecircumflex" unicode="&#xea;" horiz-adv-x="478" 
d="M488 252h-332q-17 -89 8.5 -145.5t91.5 -56.5q48 0 85.5 29.5t56.5 78.5h66q-29 -80 -91 -128q-60 -43 -128 -43q-54 0 -91.5 24.5t-52.5 65t-19.5 91t7.5 103.5q24 129 94 207.5t165 78.5t132 -77q37 -75 8 -228zM167 311h264q15 86 -10 137.5t-86 51.5
q-58 0 -104.5 -53.5t-63.5 -135.5zM409 740l117 -123h-71l-86 85l-118 -85h-71l164 123h65z" />
    <glyph glyph-name="edieresis" unicode="&#xeb;" horiz-adv-x="478" 
d="M488 252h-332q-17 -89 8.5 -145.5t91.5 -56.5q48 0 85.5 29.5t56.5 78.5h66q-29 -80 -91 -128q-60 -43 -128 -43q-54 0 -91.5 24.5t-52.5 65t-19.5 91t7.5 103.5q24 129 94 207.5t165 78.5t132 -77q37 -75 8 -228zM167 311h264q15 86 -10 137.5t-86 51.5
q-58 0 -104.5 -53.5t-63.5 -135.5zM332 731l-21 -114h-64l21 114h64zM481 731l-21 -114h-65l21 114h65z" />
    <glyph glyph-name="igrave" unicode="&#xec;" horiz-adv-x="215" 
d="M74 0l101 544h67l-101 -544h-67zM139 769l197 -126l-34 -47l-200 119z" />
    <glyph glyph-name="iacute" unicode="&#xed;" horiz-adv-x="215" 
d="M74 0l101 544h67l-101 -544h-67zM117 643l245 126l18 -54l-246 -119z" />
    <glyph glyph-name="icircumflex" unicode="&#xee;" horiz-adv-x="215" 
d="M74 0l101 544h67l-101 -544h-67zM277 740l117 -123h-70l-87 85l-118 -85h-71l164 123h65z" />
    <glyph glyph-name="idieresis" unicode="&#xef;" horiz-adv-x="215" 
d="M74 0l101 544h67l-101 -544h-67zM201 731l-21 -114h-65l21 114h65zM349 731l-21 -114h-65l21 114h65z" />
    <glyph glyph-name="eth" unicode="&#xf0;" horiz-adv-x="494" 
d="M349 619l-173 -63l10 55l134 48q-33 35 -81 61l67 25q42 -24 80 -62l170 62l-10 -55l-130 -47q64 -73 89 -166q23 -85 3 -199q-25 -134 -92.5 -212.5t-174.5 -78.5q-103 0 -140.5 75.5t-15.5 195.5q22 119 86.5 195t158.5 76q74 0 105 -60q-5 26 -28 71q-34 59 -58 79z
M152 258v-1q-19 -99 6.5 -153t93.5 -54q71 0 117.5 55t64.5 154q17 90 -6 148.5t-97 58.5q-70 0 -115.5 -53.5t-63.5 -154.5z" />
    <glyph glyph-name="ntilde" unicode="&#xf1;" horiz-adv-x="497" 
d="M66 0l101 544h60q-13 -69 -19 -93q58 106 173 106q73 0 106 -45.5t16 -140.5l-69 -371h-67l65 350q26 141 -78 141q-61 0 -103.5 -43t-57.5 -126l-60 -322h-67zM531 714l22 -40q-45 -41 -101 -41q-49 0 -84 13q-40 15 -75 15q-46 0 -79 -31l-24 41q16 17 45.5 30.5
t55.5 13.5q50 0 89 -14q41 -15 75 -15q39 0 76 28z" />
    <glyph glyph-name="ograve" unicode="&#xf2;" horiz-adv-x="493" 
d="M87 272l1 1q22 124 90 204t172 80q103 0 141 -80t15 -205t-90.5 -205t-170.5 -80q-104 0 -142.5 80t-15.5 205zM157 272v-1q-40 -221 100 -221q68 0 113.5 56.5t65.5 165.5q41 222 -98 222q-140 0 -181 -222zM278 769l196 -126l-34 -47l-200 119z" />
    <glyph glyph-name="oacute" unicode="&#xf3;" horiz-adv-x="493" 
d="M87 272l1 1q22 124 90 204t172 80q103 0 141 -80t15 -205t-90.5 -205t-170.5 -80q-104 0 -142.5 80t-15.5 205zM157 272v-1q-40 -221 100 -221q68 0 113.5 56.5t65.5 165.5q41 222 -98 222q-140 0 -181 -222zM258 643l245 126l17 -54l-246 -119z" />
    <glyph glyph-name="ocircumflex" unicode="&#xf4;" horiz-adv-x="493" 
d="M87 272l1 1q22 124 90 204t172 80q103 0 141 -80t15 -205t-90.5 -205t-170.5 -80q-104 0 -142.5 80t-15.5 205zM157 272v-1q-40 -221 100 -221q68 0 113.5 56.5t65.5 165.5q41 222 -98 222q-140 0 -181 -222zM416 740l117 -123h-70l-86 85l-119 -85h-70l163 123h65z" />
    <glyph glyph-name="otilde" unicode="&#xf5;" horiz-adv-x="493" 
d="M87 272l1 1q22 124 90 204t172 80q103 0 141 -80t15 -205t-90.5 -205t-170.5 -80q-104 0 -142.5 80t-15.5 205zM157 272v-1q-40 -221 100 -221q68 0 113.5 56.5t65.5 165.5q41 222 -98 222q-140 0 -181 -222zM529 714l22 -40q-45 -41 -101 -41q-49 0 -84 13
q-40 15 -75 15q-44 0 -79 -31l-24 41q16 17 45.5 30.5t55.5 13.5q50 0 89 -14q41 -15 75 -15q39 0 76 28z" />
    <glyph glyph-name="odieresis" unicode="&#xf6;" horiz-adv-x="493" 
d="M87 272l1 1q22 124 90 204t172 80q103 0 141 -80t15 -205t-90.5 -205t-170.5 -80q-104 0 -142.5 80t-15.5 205zM157 272v-1q-40 -221 100 -221q68 0 113.5 56.5t65.5 165.5q41 222 -98 222q-140 0 -181 -222zM340 731l-21 -114h-65l21 114h65zM489 731l-21 -114h-65
l21 114h65z" />
    <glyph glyph-name="divide" unicode="&#xf7;" horiz-adv-x="537" 
d="M404 523l-20 -110h-77l20 110h77zM74 220l11 62h471l-11 -62h-471zM323 89l-20 -110h-77l20 110h77z" />
    <glyph glyph-name="oslash" unicode="&#xf8;" horiz-adv-x="493" 
d="M560 567h58l-117 -118q25 -72 5 -177q-23 -125 -90.5 -205t-170.5 -80q-91 0 -130 68l-80 -78h-59l117 118q-25 68 -6 177q23 125 91 205t172 80q90 0 129 -67zM153 161l277 274q-22 59 -92 59q-68 0 -115 -57.5t-67 -164.5q-11 -64 -3 -111zM441 383l-277 -274
q22 -59 93 -59q68 0 114 57.5t66 164.5q13 66 4 111z" />
    <glyph glyph-name="ugrave" unicode="&#xf9;" horiz-adv-x="497" 
d="M532 544l-101 -544h-62q14 72 20 95q-58 -108 -172 -108q-73 0 -106 45.5t-16 140.5l69 371h67l-65 -350q-26 -141 78 -141q61 0 103.5 43t57.5 126l60 322h67zM260 769l197 -126l-34 -47l-201 119z" />
    <glyph glyph-name="uacute" unicode="&#xfa;" horiz-adv-x="497" 
d="M532 544l-101 -544h-62q14 72 20 95q-58 -108 -172 -108q-73 0 -106 45.5t-16 140.5l69 371h67l-65 -350q-26 -141 78 -141q61 0 103.5 43t57.5 126l60 322h67zM272 643l245 126l18 -54l-246 -119z" />
    <glyph glyph-name="ucircumflex" unicode="&#xfb;" horiz-adv-x="497" 
d="M532 544l-101 -544h-62q14 72 20 95q-58 -108 -172 -108q-73 0 -106 45.5t-16 140.5l69 371h67l-65 -350q-26 -141 78 -141q61 0 103.5 43t57.5 126l60 322h67zM418 740l117 -123h-70l-86 85l-119 -85h-70l163 123h65z" />
    <glyph glyph-name="udieresis" unicode="&#xfc;" horiz-adv-x="497" 
d="M532 544l-101 -544h-62q14 72 20 95q-58 -108 -172 -108q-73 0 -106 45.5t-16 140.5l69 371h67l-65 -350q-26 -141 78 -141q61 0 103.5 43t57.5 126l60 322h67zM342 731l-21 -114h-65l21 114h65zM490 731l-21 -114h-64l21 114h64z" />
    <glyph glyph-name="yacute" unicode="&#xfd;" horiz-adv-x="399" 
d="M56 -201l109 214l-58 531h70l41 -433l208 433h69l-372 -745h-67zM223 643l245 126l17 -54l-246 -119z" />
    <glyph glyph-name="thorn" unicode="&#xfe;" horiz-adv-x="490" 
d="M29 -201l174 941h67l-35 -192q-3 -16 -10 -48.5t-10 -48.5q55 106 158 106q82 0 118 -78.5t12 -207.5q-24 -127 -87 -205.5t-148 -78.5q-48 0 -79.5 29.5t-39.5 79.5q0 -1 -6 -36t-11 -64l-36 -197h-67zM436 272l1 1q17 96 -4.5 157t-82.5 61q-59 0 -104 -60
q-42 -50 -63 -159q-19 -106 4 -159q23 -60 82 -60q61 0 105 61t62 158z" />
    <glyph glyph-name="ydieresis" unicode="&#xff;" horiz-adv-x="399" 
d="M56 -201l109 214l-58 531h70l41 -433l208 433h69l-372 -745h-67zM292 731l-21 -114h-64l21 114h64zM441 731l-21 -114h-65l21 114h65z" />
    <glyph glyph-name="dotlessi" unicode="&#x131;" horiz-adv-x="215" 
d="M74 0l101 544h67l-101 -544h-67z" />
    <glyph glyph-name="Lslash" unicode="&#x141;" horiz-adv-x="397" 
d="M40 241l14 76l85 54l68 369h75l-58 -316l154 97l-15 -76l-154 -99l-51 -277h236l-13 -69h-311l55 296z" />
    <glyph glyph-name="lslash" unicode="&#x142;" horiz-adv-x="215" 
d="M141 360l-92 -67l12 62l91 66l59 319h67l-48 -261l91 66l-11 -62l-92 -66l-77 -417h-67z" />
    <glyph glyph-name="OE" unicode="&#x152;" horiz-adv-x="917" 
d="M702 671l-47 -258h282l-13 -69h-282l-51 -275h282l-13 -69h-348l13 70q5 26 15 76q-89 -159 -237 -159q-124 0 -176.5 104.5t-20.5 278.5t123.5 278.5t215.5 104.5q147 0 178 -158q6 28 13 76l13 69h348l-13 -69h-282zM182 367v-1q-27 -145 11.5 -227.5t126.5 -82.5
q89 0 156 78.5t95 232.5q29 158 -8 237.5t-128 79.5q-87 0 -156 -83.5t-97 -233.5z" />
    <glyph glyph-name="oe" unicode="&#x153;" horiz-adv-x="821" 
d="M836 256h-335q-17 -92 6.5 -149t93.5 -57q49 0 87.5 29.5t57.5 78.5h66q-29 -82 -91 -128q-60 -43 -127 -43q-131 0 -152 138q-67 -138 -202 -138q-52 0 -88 22.5t-53 61.5t-21 91t8 110q23 125 90.5 205t170.5 80q68 0 105.5 -36t44.5 -99q34 65 86 100t115 35
q94 0 130 -76q37 -75 8 -225zM156 272v-1q-40 -221 99 -221q70 0 116 56.5t66 165.5q41 222 -100 222q-140 0 -181 -222zM511 308h268q15 91 -10 141.5t-88 50.5t-108.5 -56t-61.5 -136z" />
    <glyph glyph-name="Scaron" unicode="&#x160;" horiz-adv-x="494" 
d="M74 204h73q-9 -79 23.5 -115t81.5 -36q61 0 108 38.5t59 105.5q7 37 -0.5 63.5t-32 44t-41 25.5t-51.5 20q-7 3 -11 4q-12 5 -19 7.5t-20 8t-21 10.5t-19.5 12.5t-18.5 16t-16 19t-13 22.5t-7.5 26.5t-3.5 32.5t4 37q17 96 81.5 152t152.5 56q173 0 163 -188h-72
q7 124 -101 124q-56 0 -95 -36.5t-50 -94.5q-6 -35 0.5 -59.5t31.5 -42t45 -26t64 -23.5q12 -4 19.5 -7.5t20.5 -10t22 -12.5t21 -16t19.5 -20.5t14.5 -25.5t10 -31.5t3 -38t-4 -45.5q-18 -96 -89.5 -155t-163.5 -59q-91 0 -138 55.5t-30 161.5zM247 911h69l84 -84l116 84
h69l-158 -120h-66z" />
    <glyph glyph-name="scaron" unicode="&#x161;" horiz-adv-x="403" 
d="M426 403h-66q16 94 -71 94q-35 0 -61 -22.5t-33 -58.5q-8 -42 17.5 -63.5t80.5 -39.5q123 -39 100 -164q-13 -72 -67.5 -117t-124.5 -45q-76 0 -113 44.5t-25 128.5h66q-9 -54 13.5 -82.5t69.5 -28.5q43 0 72.5 26.5t37.5 68.5q8 46 -16.5 71t-81.5 44q-57 20 -84 54
t-15 101q12 65 61.5 104t116.5 39q70 0 102 -39.5t21 -114.5zM168 734h70l84 -85l115 85h70l-158 -121h-66z" />
    <glyph glyph-name="Ydieresis" unicode="&#x178;" horiz-adv-x="449" 
d="M187 0l50 269l-103 471h78l76 -399l223 399h78l-277 -471l-50 -269h-75zM352 912l-21 -114h-65l21 114h65zM501 912l-21 -114h-65l21 114h65z" />
    <glyph glyph-name="Zcaron" unicode="&#x17d;" horiz-adv-x="486" 
d="M570 677l-436 -608h336l-13 -69h-423l11 60l436 611h-323l13 69h411zM239 905h69l84 -84l116 84h69l-158 -121h-67z" />
    <glyph glyph-name="zcaron" unicode="&#x17e;" horiz-adv-x="397" 
d="M20 0l11 62l339 419h-244l12 63h324l-12 -64l-337 -417h269l-12 -63h-350zM160 732h69l85 -85l115 85h69l-158 -121h-66z" />
    <glyph glyph-name="florin" unicode="&#x192;" 
d="M419 483h142l-12 -60h-146l-138 -397q-39 -121 -77 -163q-62 -68 -165 -68q-31 0 -75 11l28 68q34 -10 58 -10q65 0 97.5 38t54.5 105l143 416h-142l12 60h145q50 165 117 219q60 51 138 51q29 0 56 -8l-26 -67q-24 6 -37 6q-56 -3 -92 -35q-43 -38 -81 -166z" />
    <glyph glyph-name="circumflex" unicode="&#x2c6;" horiz-adv-x="418" 
d="M378 740l118 -123h-71l-86 85l-119 -85h-70l164 123h64z" />
    <glyph glyph-name="caron" unicode="&#x2c7;" horiz-adv-x="418" 
d="M176 734h69l84 -85l116 85h69l-158 -121h-66z" />
    <glyph glyph-name="uni02C9" unicode="&#x2c9;" horiz-adv-x="418" 
d="M512 698l-9 -51h-348l9 51h348z" />
    <glyph glyph-name="breve" unicode="&#x2d8;" horiz-adv-x="418" 
d="M168 728h57q11 -59 109 -59q97 0 130 59h56q-50 -109 -198 -109q-59 0 -102.5 26.5t-51.5 82.5z" />
    <glyph glyph-name="dotaccent" unicode="&#x2d9;" horiz-adv-x="257" 
d="M297 731l-21 -114h-66l21 114h66z" />
    <glyph glyph-name="ring" unicode="&#x2da;" horiz-adv-x="260" 
d="M277 791h1q40 0 64 -29.5t16 -70.5t-42.5 -70t-75.5 -29q-42 0 -66 29t-16 70q7 41 42.5 70.5t76.5 29.5zM269 751h-1q-24 0 -44.5 -17t-24.5 -42q-4 -24 10 -41t39 -17q24 0 43.5 17t24.5 41q5 25 -8.5 42t-38.5 17z" />
    <glyph glyph-name="ogonek" unicode="&#x2db;" horiz-adv-x="216" 
d="M119 6l51 3q-48 -32 -70 -53t-27 -48t9.5 -44.5t40.5 -17.5q23 0 57 12l-9 -46q-32 -18 -72 -18q-47 0 -70.5 27.5t-15.5 69.5q5 26 23 49t35 35t48 31z" />
    <glyph glyph-name="tilde" unicode="&#x2dc;" horiz-adv-x="418" 
d="M491 714l23 -40q-45 -41 -102 -41q-49 0 -84 13q-40 15 -74 15q-45 0 -80 -31l-24 41q16 17 45.5 30.5t55.5 13.5q50 0 89 -14q41 -15 75 -15q39 0 76 28z" />
    <glyph glyph-name="hungarumlaut" unicode="&#x2dd;" horiz-adv-x="418" 
d="M172 634l193 132l32 -43l-198 -127zM339 634l193 132l32 -43l-198 -127z" />
    <glyph glyph-name="uni03A9" unicode="&#x3a9;" horiz-adv-x="673" 
d="M200 58v3q-45 58 -65 145t0 192q29 157 126 254.5t218 97.5t177.5 -100.5t29.5 -247.5q-20 -108 -75 -198t-119 -143v-3h143l-11 -58h-222l8 42q69 47 127 139t79 207q10 73 3 140.5t-47.5 115t-105.5 47.5q-95 0 -168.5 -86.5t-97.5 -217.5q-21 -110 3.5 -205t74.5 -140
l-8 -42h-222l11 58h141z" />
    <glyph glyph-name="uni03BC" unicode="&#x3bc;" horiz-adv-x="500" 
d="M32 -181l135 725h67l-63 -338q-15 -85 4 -120q18 -33 70 -33q63 0 106 45q42 43 60 141l57 305h67l-101 -544h-62q3 18 10.5 51.5t9.5 46.5q-26 -53 -71.5 -82t-98.5 -29q-32 0 -55.5 13.5t-27.5 40.5q-2 -9 -6 -34.5t-6 -36.5l-28 -151h-67z" />
    <glyph glyph-name="pi" unicode="&#x3c0;" horiz-adv-x="537" 
d="M600 489h-76l-63 -339q-18 -96 -14 -150h-64q-11 30 11 144l64 345h-174q-27 -119 -75 -268.5t-87 -220.5h-65q42 80 88 224t73 265q-72 0 -108 -12l-2 45q47 27 139 27h371z" />
    <glyph glyph-name="uni2010" unicode="&#x2010;" horiz-adv-x="262" 
d="M83 313h212l-12 -67h-212z" />
    <glyph glyph-name="endash" unicode="&#x2013;" horiz-adv-x="500" 
d="M80 313h456l-12 -67h-456z" />
    <glyph glyph-name="emdash" unicode="&#x2014;" horiz-adv-x="1000" 
d="M80 313h956l-12 -67h-956z" />
    <glyph glyph-name="quoteleft" unicode="&#x2018;" horiz-adv-x="257" 
d="M265 740l36 -189h-65l-44 189h73z" />
    <glyph glyph-name="quoteright" unicode="&#x2019;" horiz-adv-x="257" 
d="M160 551l106 189h73l-114 -189h-65z" />
    <glyph glyph-name="quotesinglbase" unicode="&#x201a;" horiz-adv-x="257" 
d="M43 -83l106 189h73l-114 -189h-65z" />
    <glyph glyph-name="quotedblleft" unicode="&#x201c;" horiz-adv-x="397" 
d="M273 740l36 -189h-65l-45 189h74zM397 740l37 -189h-66l-44 189h73z" />
    <glyph glyph-name="quotedblright" unicode="&#x201d;" horiz-adv-x="397" 
d="M168 551l106 189h73l-114 -189h-65zM292 551l107 189h73l-115 -189h-65z" />
    <glyph glyph-name="quotedblbase" unicode="&#x201e;" horiz-adv-x="397" 
d="M51 -83l106 189h73l-114 -189h-65zM175 -83l107 189h73l-115 -189h-65z" />
    <glyph glyph-name="dagger" unicode="&#x2020;" horiz-adv-x="500" 
d="M420 740l-37 -198h168l-12 -66h-168l-107 -576h-67l107 576h-167l12 66h167l37 198h67z" />
    <glyph glyph-name="daggerdbl" unicode="&#x2021;" horiz-adv-x="500" 
d="M421 740l-33 -180h167l-12 -66h-167l-65 -348h167l-12 -66h-167l-34 -180h-67l34 180h-168l12 66h168l65 348h-168l12 66h168l33 180h67z" />
    <glyph glyph-name="bullet" unicode="&#x2022;" horiz-adv-x="421" 
d="M302 489h1q50 0 79 -35t19 -85q-9 -50 -51 -85.5t-93 -35.5q-52 0 -81 35.5t-19 85.5q9 50 51 85t94 35z" />
    <glyph glyph-name="ellipsis" unicode="&#x2026;" horiz-adv-x="1000" 
d="M133 0l20 106h68l-20 -106h-68zM466 0l20 106h68l-20 -106h-68zM799 0l20 106h68l-20 -106h-68z" />
    <glyph glyph-name="perthousand" unicode="&#x2030;" horiz-adv-x="1059" 
d="M130 583v1q15 77 68.5 123t121.5 46q69 0 105 -46.5t21 -123.5q-14 -77 -67 -123.5t-122 -46.5q-68 0 -104.5 46.5t-22.5 123.5zM181 583v-1q-10 -54 13.5 -87t71.5 -33t84 33t46 88t-14 88t-72 33t-83.5 -33t-45.5 -88zM393 157v1q15 77 68 123t122 46q68 0 104.5 -46.5
t21.5 -123.5q-14 -77 -67.5 -123.5t-121.5 -46.5q-69 0 -105 46.5t-22 123.5zM444 157v-1q-10 -54 13.5 -87t71.5 -33t83.5 33t45.5 88t-13 88t-71 33t-84 -33t-46 -88zM750 157v1q15 77 68.5 123t121.5 46q69 0 105 -46.5t21 -123.5q-14 -77 -67 -123.5t-122 -46.5
q-68 0 -104.5 46.5t-22.5 123.5zM801 157v-1q-10 -54 13.5 -87t71.5 -33t83.5 33t45.5 88t-13 88t-71 33t-84 -33t-46 -88zM731 744l-562 -748h-63l563 748h62z" />
    <glyph glyph-name="guilsinglleft" unicode="&#x2039;" horiz-adv-x="259" 
d="M95 278l143 190h65l-143 -190l73 -187h-65z" />
    <glyph glyph-name="guilsinglright" unicode="&#x203a;" horiz-adv-x="259" 
d="M195 468l73 -190l-143 -187h-65l143 187l-73 190h65z" />
    <glyph glyph-name="fraction" unicode="&#x2044;" horiz-adv-x="113" 
d="M-151 -4l496 748h56l-496 -748h-56z" />
    <glyph glyph-name="Euro" unicode="&#x20ac;" horiz-adv-x="556" 
d="M604 573q0 -23 -1 -33h-69q0 5 0.5 11.5t0.5 10.5q0 58 -28.5 90.5t-77.5 32.5q-40 0 -73.5 -20.5t-55.5 -55.5t-35.5 -69t-23.5 -72h258l-22 -60h-249q-6 -28 -8 -38q-4 -22 -5 -33h236l-22 -60h-221q-4 -31 -4 -62q0 -160 114 -160q17 0 35 5t41 17t43 39.5t31 66.5h71
q-31 -104 -96 -150t-139 -46q-87 0 -130.5 60.5t-43.5 167.5q0 35 2 62h-80l22 60h65q1 6 2.5 17t2.5 16q2 10 8 38h-77l22 60h70q81 285 272 285q47 0 81 -16.5t51 -44.5t25 -57.5t8 -61.5z" />
    <glyph glyph-name="afii61289" unicode="&#x2113;" horiz-adv-x="459" 
d="M430 143l27 -28q-83 -123 -195 -123q-79 0 -107 56t-13 147l3 14l-64 -48l-15 40q61 46 91 73l54 292q24 131 76.5 189t113.5 58q56 0 77 -45.5t7 -119.5q-34 -179 -268 -387l-7 -38q-16 -91 5.5 -133.5t68.5 -42.5q76 0 146 96zM274 569l-43 -236q183 180 208 315
q21 112 -48 112q-33 0 -65.5 -46.5t-51.5 -144.5z" />
    <glyph glyph-name="trademark" unicode="&#x2122;" horiz-adv-x="943" 
d="M443 303l81 437h83l101 -344l230 344h82l-81 -437h-58l67 358l-235 -358h-44l-101 357l-66 -357h-59zM204 303l72 386h-121l9 51h305l-9 -51h-121l-72 -386h-63z" />
    <glyph glyph-name="Omega" unicode="&#x2126;" horiz-adv-x="673" 
d="M200 58v3q-45 58 -65 145t0 192q29 157 126 254.5t218 97.5t177.5 -100.5t29.5 -247.5q-20 -108 -75 -198t-119 -143v-3h143l-11 -58h-222l8 42q69 47 127 139t79 207q10 73 3 140.5t-47.5 115t-105.5 47.5q-95 0 -168.5 -86.5t-97.5 -217.5q-21 -110 3.5 -205t74.5 -140
l-8 -42h-222l11 58h141z" />
    <glyph glyph-name="estimated" unicode="&#x212e;" horiz-adv-x="1062" 
d="M1026 359h-689q-6 0 -6 -4v-209q0 -11 9 -24q110 -113 261 -113q163 0 274 127h62q-58 -68 -147 -108t-190 -40q-176 0 -300.5 112t-124.5 270t124.5 270t300.5 112q177 0 301.5 -112t124.5 -270v-11zM870 386v210q0 14 -11 25q-109 109 -258 109q-150 0 -259 -112
q-11 -11 -11 -26v-206q0 -6 6 -6h528q5 0 5 6z" />
    <glyph glyph-name="partialdiff" unicode="&#x2202;" horiz-adv-x="517" 
d="M231 720l-14 52q77 56 165 56q99 0 150.5 -100.5t15.5 -296.5q-37 -201 -123 -320t-204 -119q-86 0 -120.5 69t-15.5 172q22 120 96.5 195.5t157.5 75.5q57 0 92 -30t45 -63h2q5 19 9 44q26 138 -10 226.5t-111 88.5q-68 0 -135 -50zM237 50h1q66 0 126 82.5t92 203.5
q-6 42 -36.5 76.5t-81.5 34.5q-60 0 -114.5 -63t-71.5 -151q-15 -83 8 -133t77 -50z" />
    <glyph glyph-name="uni2206" unicode="&#x2206;" horiz-adv-x="608" 
d="M31 0l9 48l369 710h75l103 -709l-9 -49h-547zM109 57h409l-62 418q-3 25 -14 95.5t-13 97.5h-4q-9 -24 -43.5 -89.5t-45.5 -89.5z" />
    <glyph glyph-name="product" unicode="&#x220f;" horiz-adv-x="795" 
d="M769 674h-101v-776h-67v776h-270v-776h-66v776h-102v64h606v-64z" />
    <glyph glyph-name="summation" unicode="&#x2211;" horiz-adv-x="660" 
d="M640 -102h-480v48l258 371l-247 372v49h452v-60h-359v-3l231 -347l-251 -360v-3h396v-67z" />
    <glyph glyph-name="minus" unicode="&#x2212;" horiz-adv-x="537" 
d="M74 220l11 62h471l-11 -62h-471z" />
    <glyph glyph-name="uni2215" unicode="&#x2215;" horiz-adv-x="113" 
d="M-151 -4l496 748h56l-496 -748h-56z" />
    <glyph glyph-name="uni2219" unicode="&#x2219;" horiz-adv-x="257" 
d="M224 310l-20 -111h-77l20 111h77z" />
    <glyph glyph-name="radical" unicode="&#x221a;" horiz-adv-x="687" 
d="M684 878l-211 -1037h-60l-155 495l-71 -27l-14 44l129 49l122 -390q12 -43 17 -79l1 -1q6 41 13 78l178 868h51z" />
    <glyph glyph-name="infinity" unicode="&#x221e;" horiz-adv-x="847" 
d="M798 308v-1q0 -69 -44.5 -112.5t-105.5 -43.5q-45 0 -85.5 27.5t-95.5 90.5q-33 -38 -55 -59t-58 -40t-73 -19q-60 0 -103.5 44.5t-43.5 108.5q0 67 43.5 110.5t110.5 43.5q50 0 92 -30.5t91 -86.5q25 28 31.5 35.5t30 29.5t37.5 29t37.5 15t47.5 8q64 0 103.5 -41.5
t39.5 -108.5zM287 196h1q13 0 26 3t26 11t22 13.5t23 19t19.5 19t20 21.5t17.5 19q-24 29 -35.5 42t-33.5 33.5t-44.5 29t-47.5 8.5q-45 0 -72 -33t-27 -80q1 -45 30 -75.5t75 -30.5zM650 415h-1q-23 0 -48.5 -14t-39 -25.5t-39.5 -39.5t-28 -30q56 -62 88.5 -86t69.5 -24
q44 0 71 32.5t27 75.5q0 52 -28 81.5t-72 29.5z" />
    <glyph glyph-name="integral" unicode="&#x222b;" horiz-adv-x="487" 
d="M469 887l-13 -49q-16 10 -34 10q-30 0 -49 -26q-33 -41 -33 -190q0 -81 6 -265t6 -270q0 -149 -43 -215q-29 -50 -94 -50q-35 0 -60 16l12 51q33 -11 43 -11q28 0 45 25q33 47 33 184q0 86 -6 273t-6 269q0 88 11.5 139t39.5 82q35 41 90 41q30 0 52 -14z" />
    <glyph glyph-name="approxequal" unicode="&#x2248;" horiz-adv-x="621" 
d="M548 443l29 -24q-44 -95 -123 -95q-27 0 -49 9t-64 32q-54 34 -90 34q-51 0 -95 -74l-30 24q21 44 56 69.5t76 25.5q13 0 26 -2.5t25.5 -8t20.5 -9.5t20.5 -11.5t15.5 -9.5q5 -3 16 -8.5t15.5 -8.5t13.5 -7t15 -5.5t14.5 -3t16.5 -1.5q28 0 49 18t42 56zM548 278l29 -24
q-44 -95 -123 -95q-27 0 -49 9t-64 32q-59 34 -89 34q-31 0 -52.5 -19.5t-43.5 -55.5l-30 24q21 45 55.5 70.5t75.5 25.5q17 0 35 -5t27.5 -9.5t26.5 -14.5t20 -12q2 -1 15 -8.5t16 -9t13.5 -6t16 -6t14 -3t16.5 -1.5q29 0 49 17.5t42 56.5z" />
    <glyph glyph-name="notequal" unicode="&#x2260;" horiz-adv-x="638" 
d="M481 514l-44 -96h151v-46h-169l-65 -144h234v-46h-252l-51 -114l-37 17l44 97h-144v46h163l64 144h-227v46h245l51 113z" />
    <glyph glyph-name="lessequal" unicode="&#x2264;" horiz-adv-x="652" 
d="M600 110l-432 226v48l432 225v-56l-383 -191v-3l383 -192v-57zM602 20h-439v48h439v-48z" />
    <glyph glyph-name="greaterequal" unicode="&#x2265;" horiz-adv-x="652" 
d="M169 609l431 -225v-48l-431 -226v57l381 191v3l-381 192v56zM602 20h-439v48h439v-48z" />
    <glyph glyph-name="lozenge" unicode="&#x25ca;" horiz-adv-x="688" 
d="M635 369l-194 -411h-56l-192 411l194 411h56zM572 367l-139 295q-8 19 -18 56h-3q-7 -29 -18 -56l-138 -291l139 -297q13 -32 17 -55h4q9 37 17 54z" />
    <glyph glyph-name="fi" unicode="&#xfb01;" horiz-adv-x="429" 
d="M380 481h-140l-89 -481h-67l89 481h-62l12 63h62l7 41q9 46 29.5 80t42 50t49.5 25.5t42.5 11t30.5 1.5l-11 -59q-96 -6 -117 -115l-6 -35h207l-101 -544h-67zM477 641h-67l18 99h67z" />
    <glyph glyph-name="fl" unicode="&#xfb02;" horiz-adv-x="429" 
d="M380 481h-140l-89 -481h-67l89 481h-62l12 63h62l7 41q9 46 29.5 80t42 50t49.5 25.5t42.5 11t30.5 1.5l-11 -59q-96 -6 -117 -115l-6 -35h140l36 196h67l-137 -740h-67z" />
    <glyph glyph-name="a.superior" horiz-adv-x="300" 
d="M409 746l-60 -327h-49q8 48 13 67q-39 -74 -108 -74q-53 0 -77 47t-10 123q14 77 55 124t96 47q68 0 80 -75q1 11 3 22t4.5 24t3.5 22h49zM170 582v-1q-9 -50 3 -85.5t50 -35.5q29 0 51.5 21.5t34.5 55.5q8 29 11 48q5 25 5 45q-2 74 -60 74q-35 0 -60.5 -35t-34.5 -87z
" />
    <glyph glyph-name="o.superior" horiz-adv-x="300" 
d="M121 582v1q14 75 57.5 122.5t111.5 47.5t93.5 -47.5t11.5 -123.5q-14 -75 -57.5 -123t-111.5 -48t-93.5 48t-11.5 123zM174 582v-1q-24 -124 61 -124q83 0 107 125q12 65 -3 95.5t-59 29.5q-43 1 -68.5 -29.5t-37.5 -95.5z" />
    <glyph glyph-name="one.superior" horiz-adv-x="281" 
d="M315 740l-81 -440h-56l72 391h-74l9 49h130z" />
    <glyph glyph-name="two.superior" horiz-adv-x="344" 
d="M366 352l-9 -52h-270l9 49q86 73 194 170q56 51 64 95q6 35 -7.5 59t-50.5 24q-33 0 -59 -25.5t-35 -72.5h-57q10 54 37 88q47 61 126 61q59 0 88 -37t17 -99q-10 -57 -78 -119l-162 -141h193z" />
    <glyph glyph-name="three.superior" horiz-adv-x="344" 
d="M108 435h56q-8 -47 12.5 -70.5t53.5 -23.5q39 0 65 24.5t34 63.5q7 38 -11.5 66t-63.5 28h-29l8 45h27q22 0 38.5 7t25 18.5t13 21t6.5 19.5q5 27 -7 45.5t-39 19.5q-28 1 -48 -17.5t-27 -49.5h-56q12 57 52.5 86.5t89.5 29.5t76.5 -30t17.5 -79q-12 -63 -72 -90
q34 -11 49.5 -43.5t7.5 -76.5q-11 -59 -57 -98t-107 -39q-83 0 -108 60q-17 34 -7 83z" />
    </font>
</defs>
</svg>
